<svg width="105" height="141" viewBox="0 0 105 141" fill="none" xmlns="http://www.w3.org/2000/svg">
<path d="M40.1828 116.404H36.8468L36.2948 118H34.5308L37.5428 109.612H39.4988L42.5108 118H40.7348L40.1828 116.404ZM39.7268 115.06L38.5148 111.556L37.3027 115.06H39.7268ZM49.9966 111.352L45.8806 121.144H44.0926L45.5326 117.832L42.8686 111.352H44.7526L46.4686 115.996L48.2086 111.352H49.9966ZM50.4702 114.652C50.4702 113.98 50.6022 113.384 50.8662 112.864C51.1382 112.344 51.5022 111.944 51.9582 111.664C52.4222 111.384 52.9382 111.244 53.5062 111.244C54.0022 111.244 54.4342 111.344 54.8022 111.544C55.1782 111.744 55.4782 111.996 55.7022 112.3V111.352H57.3942V118H55.7022V117.028C55.4862 117.34 55.1862 117.6 54.8022 117.808C54.4262 118.008 53.9902 118.108 53.4942 118.108C52.9342 118.108 52.4222 117.964 51.9582 117.676C51.5022 117.388 51.1382 116.984 50.8662 116.464C50.6022 115.936 50.4702 115.332 50.4702 114.652ZM55.7022 114.676C55.7022 114.268 55.6222 113.92 55.4622 113.632C55.3022 113.336 55.0862 113.112 54.8142 112.96C54.5422 112.8 54.2502 112.72 53.9382 112.72C53.6262 112.72 53.3382 112.796 53.0742 112.948C52.8102 113.1 52.5942 113.324 52.4262 113.62C52.2662 113.908 52.1862 114.252 52.1862 114.652C52.1862 115.052 52.2662 115.404 52.4262 115.708C52.5942 116.004 52.8102 116.232 53.0742 116.392C53.3462 116.552 53.6342 116.632 53.9382 116.632C54.2502 116.632 54.5422 116.556 54.8142 116.404C55.0862 116.244 55.3022 116.02 55.4622 115.732C55.6222 115.436 55.7022 115.084 55.7022 114.676ZM67.291 111.256C68.107 111.256 68.763 111.508 69.259 112.012C69.763 112.508 70.015 113.204 70.015 114.1V118H68.335V114.328C68.335 113.808 68.203 113.412 67.939 113.14C67.675 112.86 67.315 112.72 66.859 112.72C66.403 112.72 66.039 112.86 65.767 113.14C65.503 113.412 65.371 113.808 65.371 114.328V118H63.691V114.328C63.691 113.808 63.559 113.412 63.295 113.14C63.031 112.86 62.671 112.72 62.215 112.72C61.751 112.72 61.383 112.86 61.111 113.14C60.847 113.412 60.715 113.808 60.715 114.328V118H59.035V111.352H60.715V112.156C60.931 111.876 61.207 111.656 61.543 111.496C61.887 111.336 62.263 111.256 62.671 111.256C63.191 111.256 63.655 111.368 64.063 111.592C64.471 111.808 64.787 112.12 65.011 112.528C65.227 112.144 65.539 111.836 65.947 111.604C66.363 111.372 66.811 111.256 67.291 111.256ZM33.8773 129.244C34.3733 129.244 34.8093 129.344 35.1853 129.544C35.5613 129.736 35.8573 129.988 36.0733 130.3V129.352H37.7653V136.048C37.7653 136.664 37.6413 137.212 37.3933 137.692C37.1453 138.18 36.7733 138.564 36.2773 138.844C35.7813 139.132 35.1813 139.276 34.4773 139.276C33.5333 139.276 32.7573 139.056 32.1493 138.616C31.5493 138.176 31.2093 137.576 31.1293 136.816H32.7973C32.8853 137.12 33.0733 137.36 33.3613 137.536C33.6573 137.72 34.0133 137.812 34.4293 137.812C34.9173 137.812 35.3133 137.664 35.6173 137.368C35.9213 137.08 36.0733 136.64 36.0733 136.048V135.016C35.8573 135.328 35.5573 135.588 35.1733 135.796C34.7973 136.004 34.3653 136.108 33.8773 136.108C33.3173 136.108 32.8053 135.964 32.3413 135.676C31.8773 135.388 31.5093 134.984 31.2373 134.464C30.9733 133.936 30.8413 133.332 30.8413 132.652C30.8413 131.98 30.9733 131.384 31.2373 130.864C31.5093 130.344 31.8733 129.944 32.3293 129.664C32.7933 129.384 33.3093 129.244 33.8773 129.244ZM36.0733 132.676C36.0733 132.268 35.9933 131.92 35.8333 131.632C35.6733 131.336 35.4573 131.112 35.1853 130.96C34.9133 130.8 34.6213 130.72 34.3093 130.72C33.9973 130.72 33.7093 130.796 33.4453 130.948C33.1813 131.1 32.9653 131.324 32.7973 131.62C32.6373 131.908 32.5573 132.252 32.5573 132.652C32.5573 133.052 32.6373 133.404 32.7973 133.708C32.9653 134.004 33.1813 134.232 33.4453 134.392C33.7173 134.552 34.0053 134.632 34.3093 134.632C34.6213 134.632 34.9133 134.556 35.1853 134.404C35.4573 134.244 35.6733 134.02 35.8333 133.732C35.9933 133.436 36.0733 133.084 36.0733 132.676ZM42.3581 136.108C41.7181 136.108 41.1421 135.968 40.6301 135.688C40.1181 135.4 39.7141 134.996 39.4181 134.476C39.1301 133.956 38.9861 133.356 38.9861 132.676C38.9861 131.996 39.1341 131.396 39.4301 130.876C39.7341 130.356 40.1461 129.956 40.6661 129.676C41.1861 129.388 41.7661 129.244 42.4061 129.244C43.0461 129.244 43.6261 129.388 44.1461 129.676C44.6661 129.956 45.0741 130.356 45.3701 130.876C45.6741 131.396 45.8261 131.996 45.8261 132.676C45.8261 133.356 45.6701 133.956 45.3581 134.476C45.0541 134.996 44.6381 135.4 44.1101 135.688C43.5901 135.968 43.0061 136.108 42.3581 136.108ZM42.3581 134.644C42.6621 134.644 42.9461 134.572 43.2101 134.428C43.4821 134.276 43.6981 134.052 43.8581 133.756C44.0181 133.46 44.0981 133.1 44.0981 132.676C44.0981 132.044 43.9301 131.56 43.5941 131.224C43.2661 130.88 42.8621 130.708 42.3821 130.708C41.9021 130.708 41.4981 130.88 41.1701 131.224C40.8501 131.56 40.6901 132.044 40.6901 132.676C40.6901 133.308 40.8461 133.796 41.1581 134.14C41.4781 134.476 41.8781 134.644 42.3581 134.644ZM48.7385 130.384C48.9545 130.032 49.2345 129.756 49.5785 129.556C49.9305 129.356 50.3305 129.256 50.7785 129.256V131.02H50.3345C49.8065 131.02 49.4065 131.144 49.1345 131.392C48.8705 131.64 48.7385 132.072 48.7385 132.688V136H47.0585V129.352H48.7385V130.384ZM58.09 132.532C58.09 132.772 58.074 132.988 58.042 133.18H53.182C53.222 133.66 53.39 134.036 53.686 134.308C53.982 134.58 54.346 134.716 54.778 134.716C55.402 134.716 55.846 134.448 56.11 133.912H57.922C57.73 134.552 57.362 135.08 56.818 135.496C56.274 135.904 55.606 136.108 54.814 136.108C54.174 136.108 53.598 135.968 53.086 135.688C52.582 135.4 52.186 134.996 51.898 134.476C51.618 133.956 51.478 133.356 51.478 132.676C51.478 131.988 51.618 131.384 51.898 130.864C52.178 130.344 52.57 129.944 53.074 129.664C53.578 129.384 54.158 129.244 54.814 129.244C55.446 129.244 56.01 129.38 56.506 129.652C57.01 129.924 57.398 130.312 57.67 130.816C57.95 131.312 58.09 131.884 58.09 132.532ZM56.35 132.052C56.342 131.62 56.186 131.276 55.882 131.02C55.578 130.756 55.206 130.624 54.766 130.624C54.35 130.624 53.998 130.752 53.71 131.008C53.43 131.256 53.258 131.604 53.194 132.052H56.35ZM63.0003 129.256C63.7923 129.256 64.4323 129.508 64.9203 130.012C65.4083 130.508 65.6523 131.204 65.6523 132.1V136H63.9723V132.328C63.9723 131.8 63.8403 131.396 63.5763 131.116C63.3123 130.828 62.9523 130.684 62.4963 130.684C62.0323 130.684 61.6643 130.828 61.3923 131.116C61.1283 131.396 60.9963 131.8 60.9963 132.328V136H59.3163V129.352H60.9963V130.18C61.2203 129.892 61.5043 129.668 61.8483 129.508C62.2003 129.34 62.5843 129.256 63.0003 129.256ZM69.8539 129.244C70.3499 129.244 70.7859 129.344 71.1619 129.544C71.5379 129.736 71.8339 129.988 72.0499 130.3V129.352H73.7419V136.048C73.7419 136.664 73.6179 137.212 73.3699 137.692C73.1219 138.18 72.7499 138.564 72.2539 138.844C71.7579 139.132 71.1579 139.276 70.4539 139.276C69.5099 139.276 68.7339 139.056 68.1259 138.616C67.5259 138.176 67.1859 137.576 67.1059 136.816H68.7739C68.8619 137.12 69.0499 137.36 69.3379 137.536C69.6339 137.72 69.9899 137.812 70.4059 137.812C70.8939 137.812 71.2899 137.664 71.5939 137.368C71.8979 137.08 72.0499 136.64 72.0499 136.048V135.016C71.8339 135.328 71.5339 135.588 71.1499 135.796C70.7739 136.004 70.3419 136.108 69.8539 136.108C69.2939 136.108 68.7819 135.964 68.3179 135.676C67.8539 135.388 67.4859 134.984 67.2139 134.464C66.9499 133.936 66.8179 133.332 66.8179 132.652C66.8179 131.98 66.9499 131.384 67.2139 130.864C67.4859 130.344 67.8499 129.944 68.3059 129.664C68.7699 129.384 69.2859 129.244 69.8539 129.244ZM72.0499 132.676C72.0499 132.268 71.9699 131.92 71.8099 131.632C71.6499 131.336 71.4339 131.112 71.1619 130.96C70.8899 130.8 70.5979 130.72 70.2859 130.72C69.9739 130.72 69.6859 130.796 69.4219 130.948C69.1579 131.1 68.9419 131.324 68.7739 131.62C68.6139 131.908 68.5339 132.252 68.5339 132.652C68.5339 133.052 68.6139 133.404 68.7739 133.708C68.9419 134.004 69.1579 134.232 69.4219 134.392C69.6939 134.552 69.9819 134.632 70.2859 134.632C70.5979 134.632 70.8899 134.556 71.1619 134.404C71.4339 134.244 71.6499 134.02 71.8099 133.732C71.9699 133.436 72.0499 133.084 72.0499 132.676Z" fill="#7FBCD2"/>
<g filter="url(#filter0_d_315_5015)">
<circle cx="52.5" cy="48.5" r="47.5" stroke="#7FBCD2" stroke-width="2" shape-rendering="crispEdges"/>
</g>
<path d="M56.6895 68.4139V56.292C56.6895 56.2534 56.6695 56.2334 56.6309 56.2334H48.3938C48.3551 56.2334 48.3364 56.2534 48.3364 56.292V68.4325C48.3364 68.4725 48.3165 68.4912 48.2778 68.4912C44.1013 68.5698 40.3325 71.2498 40.3325 75.0572C40.3325 78.4381 43.2857 80.7303 46.588 80.7303C48.8029 80.7103 50.9205 79.8174 52.4743 78.2435C52.493 78.2235 52.5316 78.2235 52.5516 78.2435C54.1055 79.8174 56.2231 80.7103 58.438 80.7303C61.7403 80.7303 64.6935 78.4181 64.6935 75.0572C64.7121 71.2498 60.9247 68.5498 56.7482 68.4912C56.7095 68.4725 56.6895 68.4525 56.6895 68.4139Z" fill="#D62828"/>
<path opacity="0.2" d="M56.69 68.4725V56.292C56.69 56.2534 56.67 56.2334 56.6313 56.2334H53.97C53.9314 56.2334 53.9114 56.2534 53.9114 56.292V68.8017C53.9114 68.8417 53.9514 68.8603 53.99 68.8603C54.8442 68.6084 55.7185 68.4912 56.6127 68.4912C56.6313 68.4725 56.67 68.4725 56.69 68.4725Z" fill="black"/>
<path opacity="0.2" d="M62.1486 70.3566C63.3146 77.3303 54.3592 79.2734 50.1427 74.7463C50.124 74.7277 50.0854 74.7277 50.0654 74.7463C47.6959 77.2131 43.4994 78.0873 40.5662 76.2229C40.5276 76.2029 40.4689 76.2429 40.4889 76.2815C41.8096 81.5842 49.0752 81.896 52.4748 78.2232C52.4935 78.2046 52.5321 78.2046 52.5521 78.2232C56.3009 82.2838 64.4794 81.3323 64.6939 75.0382C64.7326 73.0952 63.7424 71.464 62.2458 70.2979C62.2072 70.2779 62.1486 70.3166 62.1486 70.3566Z" fill="black"/>
<path d="M71.0065 33.3102C71.0065 23.0914 63.6636 14.0586 52.5519 14H52.4546C41.3429 14.0586 34 23.0914 34 33.3102C34 47.996 44.7812 61.4399 52.4546 61.5558H52.5519C60.2253 61.4585 71.0065 47.996 71.0065 33.3102Z" fill="#FFCC1D"/>
<path d="M55.2907 41.078C55.5613 39.5455 55.0482 38.1755 54.1513 38.0182C53.2531 37.8637 52.3069 38.9764 52.039 40.509C51.7712 42.0415 52.2816 43.4115 53.1798 43.5688C54.0793 43.726 55.0229 42.6106 55.2907 41.078Z" fill="#EFE7D7"/>
<path d="M55.9635 27.3784C56.7417 26.9706 56.7844 25.522 56.0621 24.144C55.3371 22.7674 54.1191 21.9838 53.3408 22.3916C52.5612 22.802 52.5172 24.2506 53.2409 25.6259C53.9658 27.0039 55.1839 27.7888 55.9635 27.3784Z" fill="#EFE7D7"/>
<path d="M62.011 37.8573C62.9505 37.1084 63.2503 35.9223 62.6826 35.2094C62.1136 34.4964 60.8915 34.5257 59.9507 35.276C59.0125 36.0263 58.7113 37.211 59.2817 37.924C59.8481 38.6369 61.0728 38.6076 62.011 37.8573Z" fill="#EFE7D7"/>
<path d="M45.9271 30.5392C46.4308 29.5424 46.2242 28.4256 45.4686 28.0445C44.7117 27.662 43.6895 28.1591 43.1884 29.1559C42.6847 30.1527 42.8913 31.2695 43.6469 31.6506C44.4038 32.0331 45.4246 31.536 45.9271 30.5392Z" fill="#EFE7D7"/>
<path d="M42.5515 24.4362C43.451 24.0831 43.9667 23.2608 43.7069 22.6025C43.447 21.9442 42.5088 21.6976 41.6106 22.0508C40.7111 22.4066 40.194 23.2262 40.4552 23.8859C40.7137 24.5455 41.6533 24.7921 42.5515 24.4362Z" fill="#EFE7D7"/>
<path d="M47.5733 16.0868C47.8065 15.1713 47.3867 14.2758 46.6391 14.0852C45.8901 13.8946 45.0945 14.4823 44.8613 15.3965C44.6294 16.3121 45.0479 17.2089 45.7955 17.3995C46.5458 17.5901 47.3401 17.001 47.5733 16.0868Z" fill="#EFE7D7"/>
<path d="M68.2879 23.0584C68.5451 22.0389 68.1493 21.0581 67.4017 20.8675C66.6514 20.6796 65.8358 21.3499 65.5759 22.3694C65.3174 23.3889 65.7132 24.3684 66.4635 24.559C67.2111 24.7495 68.0293 24.0765 68.2879 23.0584Z" fill="#EFE7D7"/>
<path opacity="0.2" d="M70.2296 27.6758C70.211 27.6185 70.1137 27.6371 70.1137 27.6958C69.9578 36.6512 63.8782 45.3348 54.2804 49.0263C48.9391 51.0852 43.3633 51.2598 38.4285 49.8618C42.2758 56.7583 47.889 61.4786 52.436 61.5559H52.532C60.2054 61.4586 70.9879 47.9961 70.9879 33.3103C71.0066 31.3872 70.7547 29.4829 70.2296 27.6758Z" fill="#5F4A22"/>
<path d="M52.4746 78.2434C53.037 77.6797 53.5421 76.98 53.8726 76.2617" stroke="#7FBCD2" stroke-linecap="round" stroke-linejoin="round"/>
<path d="M56.69 68.4726C55.893 68.3554 54.7083 68.4913 53.9114 68.8604" stroke="#7FBCD2" stroke-linecap="round" stroke-linejoin="round"/>
<defs>
<filter id="filter0_d_315_5015" x="0" y="0" width="105" height="105" filterUnits="userSpaceOnUse" color-interpolation-filters="sRGB">
<feFlood flood-opacity="0" result="BackgroundImageFix"/>
<feColorMatrix in="SourceAlpha" type="matrix" values="0 0 0 0 0 0 0 0 0 0 0 0 0 0 0 0 0 0 127 0" result="hardAlpha"/>
<feOffset dy="4"/>
<feGaussianBlur stdDeviation="2"/>
<feComposite in2="hardAlpha" operator="out"/>
<feColorMatrix type="matrix" values="0 0 0 0 0 0 0 0 0 0 0 0 0 0 0 0 0 0 0.25 0"/>
<feBlend mode="normal" in2="BackgroundImageFix" result="effect1_dropShadow_315_5015"/>
<feBlend mode="normal" in="SourceGraphic" in2="effect1_dropShadow_315_5015" result="shape"/>
</filter>
</defs>
</svg>
