<svg width="156" height="190" viewBox="0 0 156 190" fill="none" xmlns="http://www.w3.org/2000/svg">
<path d="M53.2677 166.466C54.1477 166.466 54.9197 166.638 55.5837 166.982C56.2557 167.326 56.7717 167.818 57.1317 168.458C57.4997 169.09 57.6837 169.826 57.6837 170.666C57.6837 171.506 57.4997 172.242 57.1317 172.874C56.7717 173.498 56.2557 173.982 55.5837 174.326C54.9197 174.67 54.1477 174.842 53.2677 174.842H50.3397V166.466H53.2677ZM53.2077 173.414C54.0877 173.414 54.7677 173.174 55.2477 172.694C55.7277 172.214 55.9677 171.538 55.9677 170.666C55.9677 169.794 55.7277 169.114 55.2477 168.626C54.7677 168.13 54.0877 167.882 53.2077 167.882H52.0197V173.414H53.2077ZM61.8933 174.95C61.2533 174.95 60.6773 174.81 60.1653 174.53C59.6533 174.242 59.2493 173.838 58.9533 173.318C58.6653 172.798 58.5213 172.198 58.5213 171.518C58.5213 170.838 58.6693 170.238 58.9653 169.718C59.2693 169.198 59.6813 168.798 60.2013 168.518C60.7213 168.23 61.3013 168.086 61.9413 168.086C62.5813 168.086 63.1613 168.23 63.6813 168.518C64.2013 168.798 64.6093 169.198 64.9053 169.718C65.2093 170.238 65.3613 170.838 65.3613 171.518C65.3613 172.198 65.2053 172.798 64.8933 173.318C64.5893 173.838 64.1733 174.242 63.6453 174.53C63.1253 174.81 62.5413 174.95 61.8933 174.95ZM61.8933 173.486C62.1973 173.486 62.4813 173.414 62.7453 173.27C63.0173 173.118 63.2333 172.894 63.3933 172.598C63.5533 172.302 63.6333 171.942 63.6333 171.518C63.6333 170.886 63.4653 170.402 63.1293 170.066C62.8013 169.722 62.3973 169.55 61.9173 169.55C61.4373 169.55 61.0333 169.722 60.7053 170.066C60.3853 170.402 60.2253 170.886 60.2253 171.518C60.2253 172.15 60.3813 172.638 60.6933 172.982C61.0133 173.318 61.4133 173.486 61.8933 173.486ZM70.2776 168.098C71.0696 168.098 71.7096 168.35 72.1976 168.854C72.6856 169.35 72.9296 170.046 72.9296 170.942V174.842H71.2496V171.17C71.2496 170.642 71.1176 170.238 70.8536 169.958C70.5896 169.67 70.2296 169.526 69.7736 169.526C69.3096 169.526 68.9416 169.67 68.6696 169.958C68.4056 170.238 68.2736 170.642 68.2736 171.17V174.842H66.5936V168.194H68.2736V169.022C68.4976 168.734 68.7816 168.51 69.1256 168.35C69.4776 168.182 69.8616 168.098 70.2776 168.098ZM74.0952 171.494C74.0952 170.822 74.2272 170.226 74.4912 169.706C74.7632 169.186 75.1272 168.786 75.5832 168.506C76.0472 168.226 76.5632 168.086 77.1312 168.086C77.6272 168.086 78.0592 168.186 78.4272 168.386C78.8032 168.586 79.1032 168.838 79.3272 169.142V168.194H81.0192V174.842H79.3272V173.87C79.1112 174.182 78.8112 174.442 78.4272 174.65C78.0512 174.85 77.6152 174.95 77.1192 174.95C76.5592 174.95 76.0472 174.806 75.5832 174.518C75.1272 174.23 74.7632 173.826 74.4912 173.306C74.2272 172.778 74.0952 172.174 74.0952 171.494ZM79.3272 171.518C79.3272 171.11 79.2472 170.762 79.0872 170.474C78.9272 170.178 78.7112 169.954 78.4392 169.802C78.1672 169.642 77.8752 169.562 77.5632 169.562C77.2512 169.562 76.9632 169.638 76.6992 169.79C76.4352 169.942 76.2192 170.166 76.0512 170.462C75.8912 170.75 75.8112 171.094 75.8112 171.494C75.8112 171.894 75.8912 172.246 76.0512 172.55C76.2192 172.846 76.4352 173.074 76.6992 173.234C76.9712 173.394 77.2592 173.474 77.5632 173.474C77.8752 173.474 78.1672 173.398 78.4392 173.246C78.7112 173.086 78.9272 172.862 79.0872 172.574C79.2472 172.278 79.3272 171.926 79.3272 171.518ZM84.616 169.574V172.79C84.616 173.014 84.668 173.178 84.772 173.282C84.884 173.378 85.068 173.426 85.324 173.426H86.104V174.842H85.048C83.632 174.842 82.924 174.154 82.924 172.778V169.574H82.132V168.194H82.924V166.55H84.616V168.194H86.104V169.574H84.616Z" fill="#7FBCD2"/>
<g filter="url(#filter0_d_1304_5761)">
<path d="M150.152 74.7556C150.152 115.505 117.643 148.511 77.5758 148.511C37.5082 148.511 5 115.505 5 74.7556C5 34.0065 37.5082 1 77.5758 1C117.643 1 150.152 34.0065 150.152 74.7556Z" stroke="#7FBCD2" stroke-width="2" shape-rendering="crispEdges"/>
</g>
<path d="M77.8759 29.2856C102.78 29.2856 122.929 49.792 122.929 75.0609C122.929 100.33 102.78 120.873 77.8759 120.873C53.0058 120.873 32.8231 100.366 32.8231 75.0976C32.8231 49.792 52.9697 29.3205 77.8759 29.2856ZM77.8759 83.1996C82.2835 83.1996 85.8862 79.5741 85.8862 75.0976C85.8862 70.6193 82.3178 66.9589 77.9102 66.9589C73.5025 66.9589 69.8999 70.5826 69.8999 75.0609C69.8999 79.5741 73.4683 83.1996 77.8759 83.1996Z" fill="#D62828"/>
<path d="M77.8756 41.7251C95.9952 41.7251 110.686 56.651 110.686 75.0612C110.686 93.4714 95.9952 108.399 77.8756 108.399C59.7559 108.399 45.0638 93.4714 45.0638 75.0612C45.0638 56.6877 59.7559 41.7599 77.8756 41.7251ZM77.8756 83.1999C82.2832 83.1999 85.8858 79.5744 85.8858 75.0979C85.8858 70.6196 82.3175 66.9592 77.9099 66.9592C73.5022 66.9592 69.8996 70.5829 69.8996 75.0612C69.8996 79.5744 73.4679 83.1999 77.8756 83.1999Z" fill="#FFCC1D"/>
<path opacity="0.2" d="M65.9469 56.0123C64.6871 56.6872 64.198 58.2515 64.8622 59.5297L66.4361 62.6216C67.1021 63.9016 68.6399 64.3986 69.8997 63.7238C71.1596 63.0489 71.6487 61.4846 70.9845 60.2046L69.4106 57.1127C68.7446 55.8344 67.2068 55.3356 65.9469 56.0123Z" fill="#5F4A22"/>
<path opacity="0.2" d="M103.2 68.3798C103.655 69.7296 105.088 70.476 106.453 70.0138L109.705 68.9135C111.036 68.4514 111.77 66.9934 111.315 65.607C110.86 64.2573 109.426 63.5109 108.063 63.973L104.808 65.0752C103.444 65.5355 102.745 67.0283 103.2 68.3798Z" fill="#5F4A22"/>
<path opacity="0.2" d="M92.636 68.8057C94.0349 68.9487 95.2947 67.9181 95.4337 66.4968L95.7838 63.0492C95.9246 61.6279 94.9102 60.3479 93.5096 60.2048C92.1108 60.0636 90.851 61.0943 90.712 62.5155L90.3618 65.9632C90.2228 67.3844 91.2372 68.6645 92.636 68.8057Z" fill="#5F4A22"/>
<path opacity="0.2" d="M62.6606 78.5089C61.3304 78.012 59.8612 78.7217 59.4063 80.0732L58.253 83.343C57.762 84.6928 58.4623 86.1855 59.7908 86.6477C61.121 87.1446 62.5902 86.4349 63.045 85.0834L64.1984 81.8136C64.6893 80.4987 63.989 79.0059 62.6606 78.5089Z" fill="#5F4A22"/>
<path opacity="0.2" d="M49.6815 73.4982C49.2953 72.1118 47.8622 71.3288 46.4976 71.7212L43.2091 72.6803C41.8464 73.071 41.0756 74.5289 41.4601 75.9135C41.8464 77.2999 43.2795 78.0829 44.644 77.6905L47.9326 76.7314C49.2953 76.3407 50.066 74.8828 49.6815 73.4982Z" fill="#5F4A22"/>
<path opacity="0.2" d="M73.2587 106.123C72.0693 105.342 70.4954 105.697 69.7247 106.906L67.871 109.82C67.1021 111.029 67.4523 112.628 68.6399 113.409C69.8293 114.19 71.4032 113.836 72.174 112.628L74.0276 109.714C74.7965 108.505 74.4482 106.869 73.2587 106.123Z" fill="#5F4A22"/>
<path opacity="0.2" d="M81.5125 93.0809C80.8121 94.3243 81.2327 95.9234 82.4564 96.635L85.431 98.3753C86.6547 99.0869 88.2286 98.6596 88.9289 97.4162C89.6274 96.1728 89.2087 94.5737 87.9831 93.8622L85.0104 92.1218C83.7867 91.4103 82.2128 91.8376 81.5125 93.0809Z" fill="#5F4A22"/>
<path opacity="0.2" d="M94.4905 89.3834C93.2325 90.0235 92.7073 91.5878 93.3372 92.8678L94.875 95.9597C95.5049 97.2379 97.0445 97.7716 98.3044 97.1315C99.5624 96.4915 100.088 94.9291 99.4577 93.649L97.9181 90.5571C97.29 89.2771 95.7504 88.7434 94.4905 89.3834Z" fill="#5F4A22"/>
<path d="M65.9469 53.7731C64.6871 54.4479 64.198 56.0122 64.8622 57.2904L66.4361 60.3823C67.1021 61.6624 68.6399 62.1594 69.8997 61.4845C71.1596 60.8096 71.6487 59.2453 70.9845 57.9671L69.4106 54.8734C68.7446 53.5952 67.2068 53.0964 65.9469 53.7731Z" fill="#F77F00"/>
<path d="M103.2 66.1406C103.655 67.4903 105.088 68.2367 106.453 67.7746L109.705 66.6742C111.036 66.2121 111.77 64.7542 111.315 63.3678C110.86 62.018 109.426 61.2717 108.063 61.7338L104.808 62.8359C103.444 63.2981 102.745 64.789 103.2 66.1406Z" fill="#F77F00"/>
<path d="M92.636 66.5664C94.0349 66.7094 95.2947 65.6788 95.4337 64.2575L95.7838 60.8099C95.9246 59.3886 94.9102 58.1086 93.5096 57.9674C92.1108 57.8243 90.851 58.855 90.712 60.2762L90.3618 63.7239C90.2228 65.1451 91.2372 66.4252 92.636 66.5664Z" fill="#EFE7D7"/>
<path d="M62.6606 76.2692C61.3304 75.7722 59.8612 76.4819 59.4063 77.8335L58.253 81.1033C57.762 82.453 58.4623 83.9458 59.7908 84.4079C61.121 84.9049 62.5902 84.1952 63.045 82.8436L64.1984 79.5738C64.6893 78.2589 63.989 76.7662 62.6606 76.2692Z" fill="#EFE7D7"/>
<path d="M49.6815 71.2595C49.2953 69.8731 47.8622 69.09 46.4976 69.4825L43.2091 70.4416C41.8464 70.8322 41.0756 72.2901 41.4601 73.6747C41.8464 75.0611 43.2795 75.8441 44.644 75.4517L47.9326 74.4926C49.2953 74.102 50.066 72.644 49.6815 71.2595Z" fill="#F77F00"/>
<path d="M73.2587 103.884C72.0693 103.102 70.4954 103.458 69.7247 104.667L67.871 107.581C67.1021 108.789 67.4523 110.388 68.6399 111.17C69.8293 111.953 71.4032 111.597 72.174 110.388L74.0276 107.474C74.7965 106.266 74.4482 104.63 73.2587 103.884Z" fill="#F77F00"/>
<path d="M81.5125 90.8412C80.8121 92.0845 81.2327 93.6837 82.4564 94.3952L85.431 96.1356C86.6547 96.8471 88.2286 96.4217 88.9289 95.1765C89.6274 93.9331 89.2087 92.334 87.9831 91.6224L85.0104 89.8821C83.7867 89.1705 82.2128 89.5978 81.5125 90.8412Z" fill="#EFE7D7"/>
<path d="M94.4905 87.1444C93.2325 87.7844 92.7073 89.3487 93.3372 90.6287L94.875 93.7206C95.5049 94.9988 97.0445 95.5325 98.3044 94.8925C99.5624 94.2524 100.088 92.69 99.4577 91.4099L97.9181 88.318C97.29 87.038 95.7504 86.5062 94.4905 87.1444Z" fill="#F77F00"/>
<defs>
<filter id="filter0_d_1304_5761" x="0" y="0" width="155.151" height="157.511" filterUnits="userSpaceOnUse" color-interpolation-filters="sRGB">
<feFlood flood-opacity="0" result="BackgroundImageFix"/>
<feColorMatrix in="SourceAlpha" type="matrix" values="0 0 0 0 0 0 0 0 0 0 0 0 0 0 0 0 0 0 127 0" result="hardAlpha"/>
<feOffset dy="4"/>
<feGaussianBlur stdDeviation="2"/>
<feComposite in2="hardAlpha" operator="out"/>
<feColorMatrix type="matrix" values="0 0 0 0 0 0 0 0 0 0 0 0 0 0 0 0 0 0 0.25 0"/>
<feBlend mode="normal" in2="BackgroundImageFix" result="effect1_dropShadow_1304_5761"/>
<feBlend mode="normal" in="SourceGraphic" in2="effect1_dropShadow_1304_5761" result="shape"/>
</filter>
</defs>
</svg>
