<svg width="105" height="123" viewBox="0 0 105 123" fill="none" xmlns="http://www.w3.org/2000/svg">
<path d="M36.508 110.98V113.08H39.328V114.412H36.508V116.632H39.688V118H34.828V109.612H39.688V110.98H36.508ZM43.7587 118.108C43.2147 118.108 42.7267 118.012 42.2947 117.82C41.8627 117.62 41.5187 117.352 41.2627 117.016C41.0147 116.68 40.8787 116.308 40.8547 115.9H42.5467C42.5787 116.156 42.7027 116.368 42.9187 116.536C43.1427 116.704 43.4187 116.788 43.7467 116.788C44.0667 116.788 44.3147 116.724 44.4907 116.596C44.6747 116.468 44.7667 116.304 44.7667 116.104C44.7667 115.888 44.6547 115.728 44.4307 115.624C44.2147 115.512 43.8667 115.392 43.3867 115.264C42.8907 115.144 42.4827 115.02 42.1627 114.892C41.8507 114.764 41.5787 114.568 41.3467 114.304C41.1227 114.04 41.0107 113.684 41.0107 113.236C41.0107 112.868 41.1147 112.532 41.3227 112.228C41.5387 111.924 41.8427 111.684 42.2347 111.508C42.6347 111.332 43.1027 111.244 43.6387 111.244C44.4307 111.244 45.0627 111.444 45.5347 111.844C46.0067 112.236 46.2667 112.768 46.3147 113.44H44.7067C44.6827 113.176 44.5707 112.968 44.3707 112.816C44.1787 112.656 43.9187 112.576 43.5907 112.576C43.2867 112.576 43.0507 112.632 42.8827 112.744C42.7227 112.856 42.6427 113.012 42.6427 113.212C42.6427 113.436 42.7547 113.608 42.9787 113.728C43.2027 113.84 43.5507 113.956 44.0227 114.076C44.5027 114.196 44.8987 114.32 45.2107 114.448C45.5227 114.576 45.7907 114.776 46.0147 115.048C46.2467 115.312 46.3667 115.664 46.3747 116.104C46.3747 116.488 46.2667 116.832 46.0507 117.136C45.8427 117.44 45.5387 117.68 45.1387 117.856C44.7467 118.024 44.2867 118.108 43.7587 118.108ZM52.5692 112.732V115.948C52.5692 116.172 52.6212 116.336 52.7252 116.44C52.8372 116.536 53.0212 116.584 53.2772 116.584H54.0572V118H53.0012C51.5852 118 50.8772 117.312 50.8772 115.936V112.732H50.0852V111.352H50.8772V109.708H52.5692V111.352H54.0572V112.732H52.5692ZM61.4455 114.532C61.4455 114.772 61.4295 114.988 61.3975 115.18H56.5375C56.5775 115.66 56.7455 116.036 57.0415 116.308C57.3375 116.58 57.7015 116.716 58.1335 116.716C58.7575 116.716 59.2015 116.448 59.4655 115.912H61.2775C61.0855 116.552 60.7175 117.08 60.1735 117.496C59.6295 117.904 58.9615 118.108 58.1695 118.108C57.5295 118.108 56.9535 117.968 56.4415 117.688C55.9375 117.4 55.5415 116.996 55.2535 116.476C54.9735 115.956 54.8335 115.356 54.8335 114.676C54.8335 113.988 54.9735 113.384 55.2535 112.864C55.5335 112.344 55.9255 111.944 56.4295 111.664C56.9335 111.384 57.5135 111.244 58.1695 111.244C58.8015 111.244 59.3655 111.38 59.8615 111.652C60.3655 111.924 60.7535 112.312 61.0255 112.816C61.3055 113.312 61.4455 113.884 61.4455 114.532ZM59.7055 114.052C59.6975 113.62 59.5415 113.276 59.2375 113.02C58.9335 112.756 58.5615 112.624 58.1215 112.624C57.7055 112.624 57.3535 112.752 57.0655 113.008C56.7855 113.256 56.6135 113.604 56.5495 114.052H59.7055ZM66.4158 111.256C66.9198 111.256 67.3678 111.368 67.7598 111.592C68.1518 111.808 68.4558 112.132 68.6718 112.564C68.8958 112.988 69.0078 113.5 69.0078 114.1V118H67.3278V114.328C67.3278 113.8 67.1958 113.396 66.9318 113.116C66.6678 112.828 66.3078 112.684 65.8518 112.684C65.3878 112.684 65.0198 112.828 64.7478 113.116C64.4838 113.396 64.3518 113.8 64.3518 114.328V118H62.6718V109.12H64.3518V112.18C64.5678 111.892 64.8558 111.668 65.2158 111.508C65.5758 111.34 65.9758 111.256 66.4158 111.256Z" fill="#7FBCD2"/>
<g filter="url(#filter0_d_315_5016)">
<circle cx="52.5" cy="48.5" r="47.5" stroke="#7FBCD2" stroke-width="2" shape-rendering="crispEdges"/>
</g>
<path d="M63.9386 79.1614L40.3122 78.9096C40.3008 78.9096 40.5654 78.1754 40.5654 78.164C39.3276 68.8031 39.6634 62.3618 36.119 52.9269C34.9523 44.1308 34.5923 41.463 33.4384 32.6669C33.4384 32.6669 33.2221 27.4265 33.2349 27.4152C33.2349 27.4024 33.3658 27.5944 33.3786 27.5944L72.194 32.6911C72.1698 32.8704 72.194 32.6783 72.194 32.6911C71.0287 41.4758 70.6929 44.0952 69.5262 52.8913C68.2883 62.2651 64.7795 70.9302 63.5416 80.3025C63.5303 80.3267 63.9628 79.15 63.9386 79.1614Z" fill="#D62828"/>
<path d="M69.5155 52.8435C68.242 53.9732 67.3755 55.5839 66.6072 57.0025C64.6963 60.4984 63.9991 60.7517 63.0614 60.7517C62.1252 60.7517 61.428 60.4984 59.5171 57.0025C58.1469 54.5025 56.4409 51.3779 52.8112 51.3779C49.1815 51.3779 47.4755 54.5025 46.1053 57.0025C44.1944 60.4984 43.4972 60.7517 42.561 60.7517C41.6233 60.7517 40.9261 60.4984 39.0152 57.0025C38.2469 55.5839 37.3804 53.986 36.1069 52.8435L37.6208 64.3572L39.2799 76.8541L52.8112 78.6455L66.3425 76.8541L68.1808 62.9144L69.5155 52.8435Z" fill="#FFCC1D"/>
<path d="M39.8314 81.0482H65.7899L66.3419 76.8423H39.2793L39.8314 81.0482Z" fill="#F77F00"/>
<path d="M72.9287 26.4893C72.9515 26.4893 72.9757 26.5263 72.9515 26.5504C72.3511 27.3672 64.948 37.0653 52.7997 37.0653C40.6499 37.0653 33.2469 27.3558 32.6464 26.5504C32.6336 26.5263 32.6464 26.4893 32.6706 26.4893H72.9287Z" fill="#F77F00"/>
<path d="M54.3622 11.5278L51.0925 30.5755H54.8659L58.0275 12.1525L54.3622 11.5278Z" fill="#D62828"/>
<path opacity="0.2" d="M59.1795 36.9197L51.1646 30.635C51.1404 30.6108 51.1518 30.5752 51.1888 30.5752H54.8541C54.8654 30.5752 54.8655 30.5752 54.8783 30.5866L62.8932 36.8727C62.9174 36.8969 62.906 36.9325 62.869 36.9325H59.2037C59.1923 36.9325 59.1923 36.9325 59.1795 36.9197Z" fill="#382614"/>
<path opacity="0.2" d="M56.6569 12.1523L53.4954 30.5754H54.8656L58.0271 12.1523H56.6569Z" fill="#684040"/>
<path d="M56.2114 13.6308C57.2401 13.6308 58.0739 12.797 58.0739 11.7683C58.0739 10.7396 57.2401 9.90576 56.2114 9.90576C55.1827 9.90576 54.3489 10.7396 54.3489 11.7683C54.3489 12.797 55.1827 13.6308 56.2114 13.6308Z" fill="#7FBCD2"/>
<path d="M52.8109 37.0656C40.8775 37.0656 33.4872 27.5951 32.6576 26.4896C32.6335 26.4668 32.6221 26.4896 32.6221 26.5266L33.4274 32.679C33.4274 32.6918 33.4274 32.6918 33.4388 32.7032C37.2606 36.2119 43.8825 40.6711 52.7995 40.6711C61.7151 40.6711 68.3371 36.2119 72.1588 32.7032C72.1588 32.7032 72.1702 32.6918 72.1702 32.679L72.9642 26.6219C72.9642 26.5863 72.9286 26.5749 72.9044 26.5977C72.0991 27.7033 64.7444 37.0656 52.8109 37.0656Z" fill="#EFE7D7"/>
<path d="M72.94 26.5016C72.2912 27.3666 67.6527 33.3625 59.9736 35.8995L59.6733 39.7568C65.1883 38.2657 69.4184 35.2265 72.1944 32.691L72.9998 26.5371C72.9998 26.5016 72.9514 26.466 72.94 26.5016Z" fill="#F2DFB9"/>
<path d="M52.7385 21.9834H56.2245" stroke="#7FBCD2" stroke-linecap="round" stroke-linejoin="round"/>
<path d="M52.9788 20.0605H56.4647" stroke="#7FBCD2" stroke-linecap="round" stroke-linejoin="round"/>
<path d="M53.3403 18.1367H56.8249" stroke="#7FBCD2" stroke-linecap="round" stroke-linejoin="round"/>
<path d="M52.7866 37.125V40.49" stroke="white" stroke-linecap="round" stroke-linejoin="round"/>
<path d="M56.3923 36.8843V40.2493" stroke="white" stroke-linecap="round" stroke-linejoin="round"/>
<path d="M59.7573 36.0435V39.4085" stroke="white" stroke-linecap="round" stroke-linejoin="round"/>
<path d="M62.8816 34.7217V38.4467" stroke="white" stroke-linecap="round" stroke-linejoin="round"/>
<path d="M65.8855 33.0386V37.125" stroke="white" stroke-linecap="round" stroke-linejoin="round"/>
<path d="M68.5291 31.1167V35.4436" stroke="white" stroke-linecap="round" stroke-linejoin="round"/>
<path d="M70.8127 29.0732V33.7601" stroke="white" stroke-linecap="round" stroke-linejoin="round"/>
<path d="M49.1812 36.8843V40.2493" stroke="white" stroke-linecap="round" stroke-linejoin="round"/>
<path d="M45.8162 36.0435V39.4085" stroke="white" stroke-linecap="round" stroke-linejoin="round"/>
<path d="M42.6929 34.8413V38.4468" stroke="white" stroke-linecap="round" stroke-linejoin="round"/>
<path d="M39.6877 33.0386V37.125" stroke="white" stroke-linecap="round" stroke-linejoin="round"/>
<path d="M37.0444 31.2368V35.4428" stroke="white" stroke-linecap="round" stroke-linejoin="round"/>
<path d="M34.7607 29.1938V33.7598" stroke="white" stroke-linecap="round" stroke-linejoin="round"/>
<path d="M49.0491 30.7559H56.5005" stroke="#7FBCD2" stroke-linecap="round" stroke-linejoin="round"/>
<path d="M39.2793 76.9019H66.1982" stroke="#7FBCD2" stroke-linecap="round" stroke-linejoin="round"/>
<defs>
<filter id="filter0_d_315_5016" x="0" y="0" width="105" height="105" filterUnits="userSpaceOnUse" color-interpolation-filters="sRGB">
<feFlood flood-opacity="0" result="BackgroundImageFix"/>
<feColorMatrix in="SourceAlpha" type="matrix" values="0 0 0 0 0 0 0 0 0 0 0 0 0 0 0 0 0 0 127 0" result="hardAlpha"/>
<feOffset dy="4"/>
<feGaussianBlur stdDeviation="2"/>
<feComposite in2="hardAlpha" operator="out"/>
<feColorMatrix type="matrix" values="0 0 0 0 0 0 0 0 0 0 0 0 0 0 0 0 0 0 0.25 0"/>
<feBlend mode="normal" in2="BackgroundImageFix" result="effect1_dropShadow_315_5016"/>
<feBlend mode="normal" in="SourceGraphic" in2="effect1_dropShadow_315_5016" result="shape"/>
</filter>
</defs>
</svg>
