<svg width="105" height="134" viewBox="0 0 105 134" fill="none" xmlns="http://www.w3.org/2000/svg">
<path d="M31.9818 116L28.9338 112.268V116H27.2538V107.624H28.9338V111.38L31.9818 107.624H34.0098L30.5538 111.776L34.1058 116H31.9818ZM41.3908 112.532C41.3908 112.772 41.3748 112.988 41.3428 113.18H36.4828C36.5228 113.66 36.6908 114.036 36.9868 114.308C37.2828 114.58 37.6468 114.716 38.0788 114.716C38.7028 114.716 39.1468 114.448 39.4108 113.912H41.2228C41.0308 114.552 40.6628 115.08 40.1188 115.496C39.5748 115.904 38.9068 116.108 38.1148 116.108C37.4748 116.108 36.8988 115.968 36.3868 115.688C35.8828 115.4 35.4868 114.996 35.1988 114.476C34.9188 113.956 34.7788 113.356 34.7788 112.676C34.7788 111.988 34.9188 111.384 35.1988 110.864C35.4788 110.344 35.8708 109.944 36.3748 109.664C36.8788 109.384 37.4588 109.244 38.1148 109.244C38.7468 109.244 39.3108 109.38 39.8068 109.652C40.3108 109.924 40.6988 110.312 40.9708 110.816C41.2508 111.312 41.3908 111.884 41.3908 112.532ZM39.6508 112.052C39.6428 111.62 39.4868 111.276 39.1828 111.02C38.8788 110.756 38.5068 110.624 38.0668 110.624C37.6508 110.624 37.2988 110.752 37.0108 111.008C36.7308 111.256 36.5588 111.604 36.4948 112.052H39.6508ZM46.3011 109.256C47.0931 109.256 47.7331 109.508 48.2211 110.012C48.7091 110.508 48.9531 111.204 48.9531 112.1V116H47.2731V112.328C47.2731 111.8 47.1411 111.396 46.8771 111.116C46.6131 110.828 46.2531 110.684 45.7971 110.684C45.3331 110.684 44.9651 110.828 44.6931 111.116C44.4291 111.396 44.2971 111.8 44.2971 112.328V116H42.6171V109.352H44.2971V110.18C44.5211 109.892 44.8051 109.668 45.1491 109.508C45.5011 109.34 45.8851 109.256 46.3011 109.256ZM52.5067 110.732V113.948C52.5067 114.172 52.5587 114.336 52.6627 114.44C52.7747 114.536 52.9587 114.584 53.2147 114.584H53.9947V116H52.9387C51.5227 116 50.8147 115.312 50.8147 113.936V110.732H50.0227V109.352H50.8147V107.708H52.5067V109.352H53.9947V110.732H52.5067ZM54.771 112.652C54.771 111.98 54.903 111.384 55.167 110.864C55.439 110.344 55.803 109.944 56.259 109.664C56.723 109.384 57.239 109.244 57.807 109.244C58.303 109.244 58.735 109.344 59.103 109.544C59.479 109.744 59.779 109.996 60.003 110.3V109.352H61.695V116H60.003V115.028C59.787 115.34 59.487 115.6 59.103 115.808C58.727 116.008 58.291 116.108 57.795 116.108C57.235 116.108 56.723 115.964 56.259 115.676C55.803 115.388 55.439 114.984 55.167 114.464C54.903 113.936 54.771 113.332 54.771 112.652ZM60.003 112.676C60.003 112.268 59.923 111.92 59.763 111.632C59.603 111.336 59.387 111.112 59.115 110.96C58.843 110.8 58.551 110.72 58.239 110.72C57.927 110.72 57.639 110.796 57.375 110.948C57.111 111.1 56.895 111.324 56.727 111.62C56.567 111.908 56.487 112.252 56.487 112.652C56.487 113.052 56.567 113.404 56.727 113.708C56.895 114.004 57.111 114.232 57.375 114.392C57.647 114.552 57.935 114.632 58.239 114.632C58.551 114.632 58.843 114.556 59.115 114.404C59.387 114.244 59.603 114.02 59.763 113.732C59.923 113.436 60.003 113.084 60.003 112.676ZM67.0198 109.256C67.8118 109.256 68.4518 109.508 68.9398 110.012C69.4278 110.508 69.6718 111.204 69.6718 112.1V116H67.9918V112.328C67.9918 111.8 67.8598 111.396 67.5958 111.116C67.3318 110.828 66.9718 110.684 66.5158 110.684C66.0518 110.684 65.6838 110.828 65.4118 111.116C65.1478 111.396 65.0158 111.8 65.0158 112.328V116H63.3358V109.352H65.0158V110.18C65.2398 109.892 65.5238 109.668 65.8678 109.508C66.2198 109.34 66.6038 109.256 67.0198 109.256ZM73.8734 109.244C74.3694 109.244 74.8054 109.344 75.1814 109.544C75.5574 109.736 75.8534 109.988 76.0694 110.3V109.352H77.7614V116.048C77.7614 116.664 77.6374 117.212 77.3894 117.692C77.1414 118.18 76.7694 118.564 76.2734 118.844C75.7774 119.132 75.1774 119.276 74.4734 119.276C73.5294 119.276 72.7534 119.056 72.1454 118.616C71.5454 118.176 71.2054 117.576 71.1254 116.816H72.7934C72.8814 117.12 73.0694 117.36 73.3574 117.536C73.6534 117.72 74.0094 117.812 74.4254 117.812C74.9134 117.812 75.3094 117.664 75.6134 117.368C75.9174 117.08 76.0694 116.64 76.0694 116.048V115.016C75.8534 115.328 75.5534 115.588 75.1694 115.796C74.7934 116.004 74.3614 116.108 73.8734 116.108C73.3134 116.108 72.8014 115.964 72.3374 115.676C71.8734 115.388 71.5054 114.984 71.2334 114.464C70.9694 113.936 70.8374 113.332 70.8374 112.652C70.8374 111.98 70.9694 111.384 71.2334 110.864C71.5054 110.344 71.8694 109.944 72.3254 109.664C72.7894 109.384 73.3054 109.244 73.8734 109.244ZM76.0694 112.676C76.0694 112.268 75.9894 111.92 75.8294 111.632C75.6694 111.336 75.4534 111.112 75.1814 110.96C74.9094 110.8 74.6174 110.72 74.3054 110.72C73.9934 110.72 73.7054 110.796 73.4414 110.948C73.1774 111.1 72.9614 111.324 72.7934 111.62C72.6334 111.908 72.5534 112.252 72.5534 112.652C72.5534 113.052 72.6334 113.404 72.7934 113.708C72.9614 114.004 73.1774 114.232 73.4414 114.392C73.7134 114.552 74.0014 114.632 74.3054 114.632C74.6174 114.632 74.9094 114.556 75.1814 114.404C75.4534 114.244 75.6694 114.02 75.8294 113.732C75.9894 113.436 76.0694 113.084 76.0694 112.676ZM33.8773 123.244C34.3733 123.244 34.8093 123.344 35.1853 123.544C35.5613 123.736 35.8573 123.988 36.0733 124.3V123.352H37.7653V130.048C37.7653 130.664 37.6413 131.212 37.3933 131.692C37.1453 132.18 36.7733 132.564 36.2773 132.844C35.7813 133.132 35.1813 133.276 34.4773 133.276C33.5333 133.276 32.7573 133.056 32.1493 132.616C31.5493 132.176 31.2093 131.576 31.1293 130.816H32.7973C32.8853 131.12 33.0733 131.36 33.3613 131.536C33.6573 131.72 34.0133 131.812 34.4293 131.812C34.9173 131.812 35.3133 131.664 35.6173 131.368C35.9213 131.08 36.0733 130.64 36.0733 130.048V129.016C35.8573 129.328 35.5573 129.588 35.1733 129.796C34.7973 130.004 34.3653 130.108 33.8773 130.108C33.3173 130.108 32.8053 129.964 32.3413 129.676C31.8773 129.388 31.5093 128.984 31.2373 128.464C30.9733 127.936 30.8413 127.332 30.8413 126.652C30.8413 125.98 30.9733 125.384 31.2373 124.864C31.5093 124.344 31.8733 123.944 32.3293 123.664C32.7933 123.384 33.3093 123.244 33.8773 123.244ZM36.0733 126.676C36.0733 126.268 35.9933 125.92 35.8333 125.632C35.6733 125.336 35.4573 125.112 35.1853 124.96C34.9133 124.8 34.6213 124.72 34.3093 124.72C33.9973 124.72 33.7093 124.796 33.4453 124.948C33.1813 125.1 32.9653 125.324 32.7973 125.62C32.6373 125.908 32.5573 126.252 32.5573 126.652C32.5573 127.052 32.6373 127.404 32.7973 127.708C32.9653 128.004 33.1813 128.232 33.4453 128.392C33.7173 128.552 34.0053 128.632 34.3093 128.632C34.6213 128.632 34.9133 128.556 35.1853 128.404C35.4573 128.244 35.6733 128.02 35.8333 127.732C35.9933 127.436 36.0733 127.084 36.0733 126.676ZM42.3581 130.108C41.7181 130.108 41.1421 129.968 40.6301 129.688C40.1181 129.4 39.7141 128.996 39.4181 128.476C39.1301 127.956 38.9861 127.356 38.9861 126.676C38.9861 125.996 39.1341 125.396 39.4301 124.876C39.7341 124.356 40.1461 123.956 40.6661 123.676C41.1861 123.388 41.7661 123.244 42.4061 123.244C43.0461 123.244 43.6261 123.388 44.1461 123.676C44.6661 123.956 45.0741 124.356 45.3701 124.876C45.6741 125.396 45.8261 125.996 45.8261 126.676C45.8261 127.356 45.6701 127.956 45.3581 128.476C45.0541 128.996 44.6381 129.4 44.1101 129.688C43.5901 129.968 43.0061 130.108 42.3581 130.108ZM42.3581 128.644C42.6621 128.644 42.9461 128.572 43.2101 128.428C43.4821 128.276 43.6981 128.052 43.8581 127.756C44.0181 127.46 44.0981 127.1 44.0981 126.676C44.0981 126.044 43.9301 125.56 43.5941 125.224C43.2661 124.88 42.8621 124.708 42.3821 124.708C41.9021 124.708 41.4981 124.88 41.1701 125.224C40.8501 125.56 40.6901 126.044 40.6901 126.676C40.6901 127.308 40.8461 127.796 41.1581 128.14C41.4781 128.476 41.8781 128.644 42.3581 128.644ZM48.7385 124.384C48.9545 124.032 49.2345 123.756 49.5785 123.556C49.9305 123.356 50.3305 123.256 50.7785 123.256V125.02H50.3345C49.8065 125.02 49.4065 125.144 49.1345 125.392C48.8705 125.64 48.7385 126.072 48.7385 126.688V130H47.0585V123.352H48.7385V124.384ZM58.09 126.532C58.09 126.772 58.074 126.988 58.042 127.18H53.182C53.222 127.66 53.39 128.036 53.686 128.308C53.982 128.58 54.346 128.716 54.778 128.716C55.402 128.716 55.846 128.448 56.11 127.912H57.922C57.73 128.552 57.362 129.08 56.818 129.496C56.274 129.904 55.606 130.108 54.814 130.108C54.174 130.108 53.598 129.968 53.086 129.688C52.582 129.4 52.186 128.996 51.898 128.476C51.618 127.956 51.478 127.356 51.478 126.676C51.478 125.988 51.618 125.384 51.898 124.864C52.178 124.344 52.57 123.944 53.074 123.664C53.578 123.384 54.158 123.244 54.814 123.244C55.446 123.244 56.01 123.38 56.506 123.652C57.01 123.924 57.398 124.312 57.67 124.816C57.95 125.312 58.09 125.884 58.09 126.532ZM56.35 126.052C56.342 125.62 56.186 125.276 55.882 125.02C55.578 124.756 55.206 124.624 54.766 124.624C54.35 124.624 53.998 124.752 53.71 125.008C53.43 125.256 53.258 125.604 53.194 126.052H56.35ZM63.0003 123.256C63.7923 123.256 64.4323 123.508 64.9203 124.012C65.4083 124.508 65.6523 125.204 65.6523 126.1V130H63.9723V126.328C63.9723 125.8 63.8403 125.396 63.5763 125.116C63.3123 124.828 62.9523 124.684 62.4963 124.684C62.0323 124.684 61.6643 124.828 61.3923 125.116C61.1283 125.396 60.9963 125.8 60.9963 126.328V130H59.3163V123.352H60.9963V124.18C61.2203 123.892 61.5043 123.668 61.8483 123.508C62.2003 123.34 62.5843 123.256 63.0003 123.256ZM69.8539 123.244C70.3499 123.244 70.7859 123.344 71.1619 123.544C71.5379 123.736 71.8339 123.988 72.0499 124.3V123.352H73.7419V130.048C73.7419 130.664 73.6179 131.212 73.3699 131.692C73.1219 132.18 72.7499 132.564 72.2539 132.844C71.7579 133.132 71.1579 133.276 70.4539 133.276C69.5099 133.276 68.7339 133.056 68.1259 132.616C67.5259 132.176 67.1859 131.576 67.1059 130.816H68.7739C68.8619 131.12 69.0499 131.36 69.3379 131.536C69.6339 131.72 69.9899 131.812 70.4059 131.812C70.8939 131.812 71.2899 131.664 71.5939 131.368C71.8979 131.08 72.0499 130.64 72.0499 130.048V129.016C71.8339 129.328 71.5339 129.588 71.1499 129.796C70.7739 130.004 70.3419 130.108 69.8539 130.108C69.2939 130.108 68.7819 129.964 68.3179 129.676C67.8539 129.388 67.4859 128.984 67.2139 128.464C66.9499 127.936 66.8179 127.332 66.8179 126.652C66.8179 125.98 66.9499 125.384 67.2139 124.864C67.4859 124.344 67.8499 123.944 68.3059 123.664C68.7699 123.384 69.2859 123.244 69.8539 123.244ZM72.0499 126.676C72.0499 126.268 71.9699 125.92 71.8099 125.632C71.6499 125.336 71.4339 125.112 71.1619 124.96C70.8899 124.8 70.5979 124.72 70.2859 124.72C69.9739 124.72 69.6859 124.796 69.4219 124.948C69.1579 125.1 68.9419 125.324 68.7739 125.62C68.6139 125.908 68.5339 126.252 68.5339 126.652C68.5339 127.052 68.6139 127.404 68.7739 127.708C68.9419 128.004 69.1579 128.232 69.4219 128.392C69.6939 128.552 69.9819 128.632 70.2859 128.632C70.5979 128.632 70.8899 128.556 71.1619 128.404C71.4339 128.244 71.6499 128.02 71.8099 127.732C71.9699 127.436 72.0499 127.084 72.0499 126.676Z" fill="#7FBCD2"/>
<g filter="url(#filter0_d_315_5020)">
<circle cx="52.5" cy="48.5" r="47.5" stroke="#7FBCD2" stroke-width="2" shape-rendering="crispEdges"/>
</g>
<defs>
<filter id="filter0_d_315_5020" x="0" y="0" width="105" height="105" filterUnits="userSpaceOnUse" color-interpolation-filters="sRGB">
<feFlood flood-opacity="0" result="BackgroundImageFix"/>
<feColorMatrix in="SourceAlpha" type="matrix" values="0 0 0 0 0 0 0 0 0 0 0 0 0 0 0 0 0 0 127 0" result="hardAlpha"/>
<feOffset dy="4"/>
<feGaussianBlur stdDeviation="2"/>
<feComposite in2="hardAlpha" operator="out"/>
<feColorMatrix type="matrix" values="0 0 0 0 0 0 0 0 0 0 0 0 0 0 0 0 0 0 0.25 0"/>
<feBlend mode="normal" in2="BackgroundImageFix" result="effect1_dropShadow_315_5020"/>
<feBlend mode="normal" in="SourceGraphic" in2="effect1_dropShadow_315_5020" result="shape"/>
</filter>
</defs>
</svg>
