<svg width="156" height="205" viewBox="0 0 156 205" fill="none" xmlns="http://www.w3.org/2000/svg">
<path d="M57.9066 172.842L54.8586 169.11V172.842H53.1786V164.466H54.8586V168.222L57.9066 164.466H59.9346L56.4786 168.618L60.0306 172.842H57.9066ZM67.3157 169.374C67.3157 169.614 67.2997 169.83 67.2677 170.022H62.4077C62.4477 170.502 62.6157 170.878 62.9117 171.15C63.2077 171.422 63.5717 171.558 64.0037 171.558C64.6277 171.558 65.0717 171.29 65.3357 170.754H67.1477C66.9557 171.394 66.5877 171.922 66.0437 172.338C65.4997 172.746 64.8317 172.95 64.0397 172.95C63.3997 172.95 62.8237 172.81 62.3117 172.53C61.8077 172.242 61.4117 171.838 61.1237 171.318C60.8437 170.798 60.7037 170.198 60.7037 169.518C60.7037 168.83 60.8437 168.226 61.1237 167.706C61.4037 167.186 61.7957 166.786 62.2997 166.506C62.8037 166.226 63.3837 166.086 64.0397 166.086C64.6717 166.086 65.2357 166.222 65.7317 166.494C66.2357 166.766 66.6237 167.154 66.8957 167.658C67.1757 168.154 67.3157 168.726 67.3157 169.374ZM65.5757 168.894C65.5677 168.462 65.4117 168.118 65.1077 167.862C64.8037 167.598 64.4317 167.466 63.9917 167.466C63.5757 167.466 63.2237 167.594 62.9357 167.85C62.6557 168.098 62.4837 168.446 62.4197 168.894H65.5757ZM72.2259 166.098C73.0179 166.098 73.6579 166.35 74.1459 166.854C74.6339 167.35 74.8779 168.046 74.8779 168.942V172.842H73.1979V169.17C73.1979 168.642 73.0659 168.238 72.8019 167.958C72.5379 167.67 72.1779 167.526 71.7219 167.526C71.2579 167.526 70.8899 167.67 70.6179 167.958C70.3539 168.238 70.2219 168.642 70.2219 169.17V172.842H68.5419V166.194H70.2219V167.022C70.4459 166.734 70.7299 166.51 71.0739 166.35C71.4259 166.182 71.8099 166.098 72.2259 166.098ZM78.4315 167.574V170.79C78.4315 171.014 78.4835 171.178 78.5875 171.282C78.6995 171.378 78.8835 171.426 79.1395 171.426H79.9195V172.842H78.8635C77.4475 172.842 76.7395 172.154 76.7395 170.778V167.574H75.9475V166.194H76.7395V164.55H78.4315V166.194H79.9195V167.574H78.4315ZM80.6959 169.494C80.6959 168.822 80.8279 168.226 81.0919 167.706C81.3639 167.186 81.7279 166.786 82.1839 166.506C82.6479 166.226 83.1639 166.086 83.7319 166.086C84.2279 166.086 84.6599 166.186 85.0279 166.386C85.4039 166.586 85.7039 166.838 85.9279 167.142V166.194H87.6199V172.842H85.9279V171.87C85.7119 172.182 85.4119 172.442 85.0279 172.65C84.6519 172.85 84.2159 172.95 83.7199 172.95C83.1599 172.95 82.6479 172.806 82.1839 172.518C81.7279 172.23 81.3639 171.826 81.0919 171.306C80.8279 170.778 80.6959 170.174 80.6959 169.494ZM85.9279 169.518C85.9279 169.11 85.8479 168.762 85.6879 168.474C85.5279 168.178 85.3119 167.954 85.0399 167.802C84.7679 167.642 84.4759 167.562 84.1639 167.562C83.8519 167.562 83.5639 167.638 83.2999 167.79C83.0359 167.942 82.8199 168.166 82.6519 168.462C82.4919 168.75 82.4119 169.094 82.4119 169.494C82.4119 169.894 82.4919 170.246 82.6519 170.55C82.8199 170.846 83.0359 171.074 83.2999 171.234C83.5719 171.394 83.8599 171.474 84.1639 171.474C84.4759 171.474 84.7679 171.398 85.0399 171.246C85.3119 171.086 85.5279 170.862 85.6879 170.574C85.8479 170.278 85.9279 169.926 85.9279 169.518ZM92.9447 166.098C93.7367 166.098 94.3767 166.35 94.8647 166.854C95.3527 167.35 95.5967 168.046 95.5967 168.942V172.842H93.9167V169.17C93.9167 168.642 93.7847 168.238 93.5207 167.958C93.2567 167.67 92.8967 167.526 92.4407 167.526C91.9767 167.526 91.6087 167.67 91.3367 167.958C91.0727 168.238 90.9407 168.642 90.9407 169.17V172.842H89.2607V166.194H90.9407V167.022C91.1647 166.734 91.4487 166.51 91.7927 166.35C92.1447 166.182 92.5287 166.098 92.9447 166.098ZM99.7983 166.086C100.294 166.086 100.73 166.186 101.106 166.386C101.482 166.578 101.778 166.83 101.994 167.142V166.194H103.686V172.89C103.686 173.506 103.562 174.054 103.314 174.534C103.066 175.022 102.694 175.406 102.198 175.686C101.702 175.974 101.102 176.118 100.398 176.118C99.4543 176.118 98.6783 175.898 98.0703 175.458C97.4703 175.018 97.1303 174.418 97.0503 173.658H98.7183C98.8063 173.962 98.9943 174.202 99.2823 174.378C99.5783 174.562 99.9343 174.654 100.35 174.654C100.838 174.654 101.234 174.506 101.538 174.21C101.842 173.922 101.994 173.482 101.994 172.89V171.858C101.778 172.17 101.478 172.43 101.094 172.638C100.718 172.846 100.286 172.95 99.7983 172.95C99.2383 172.95 98.7263 172.806 98.2623 172.518C97.7983 172.23 97.4303 171.826 97.1583 171.306C96.8943 170.778 96.7623 170.174 96.7623 169.494C96.7623 168.822 96.8943 168.226 97.1583 167.706C97.4303 167.186 97.7943 166.786 98.2503 166.506C98.7143 166.226 99.2303 166.086 99.7983 166.086ZM101.994 169.518C101.994 169.11 101.914 168.762 101.754 168.474C101.594 168.178 101.378 167.954 101.106 167.802C100.834 167.642 100.542 167.562 100.23 167.562C99.9183 167.562 99.6303 167.638 99.3663 167.79C99.1023 167.942 98.8863 168.166 98.7183 168.462C98.5583 168.75 98.4783 169.094 98.4783 169.494C98.4783 169.894 98.5583 170.246 98.7183 170.55C98.8863 170.846 99.1023 171.074 99.3663 171.234C99.6383 171.394 99.9263 171.474 100.23 171.474C100.542 171.474 100.834 171.398 101.106 171.246C101.378 171.086 101.594 170.862 101.754 170.574C101.914 170.278 101.994 169.926 101.994 169.518ZM59.8022 180.086C60.2982 180.086 60.7342 180.186 61.1102 180.386C61.4862 180.578 61.7822 180.83 61.9982 181.142V180.194H63.6902V186.89C63.6902 187.506 63.5662 188.054 63.3182 188.534C63.0702 189.022 62.6982 189.406 62.2022 189.686C61.7062 189.974 61.1062 190.118 60.4022 190.118C59.4582 190.118 58.6822 189.898 58.0742 189.458C57.4742 189.018 57.1342 188.418 57.0542 187.658H58.7222C58.8102 187.962 58.9982 188.202 59.2862 188.378C59.5822 188.562 59.9382 188.654 60.3542 188.654C60.8422 188.654 61.2382 188.506 61.5422 188.21C61.8462 187.922 61.9982 187.482 61.9982 186.89V185.858C61.7822 186.17 61.4822 186.43 61.0982 186.638C60.7222 186.846 60.2902 186.95 59.8022 186.95C59.2422 186.95 58.7302 186.806 58.2662 186.518C57.8022 186.23 57.4342 185.826 57.1622 185.306C56.8982 184.778 56.7662 184.174 56.7662 183.494C56.7662 182.822 56.8982 182.226 57.1622 181.706C57.4342 181.186 57.7982 180.786 58.2542 180.506C58.7182 180.226 59.2342 180.086 59.8022 180.086ZM61.9982 183.518C61.9982 183.11 61.9182 182.762 61.7582 182.474C61.5982 182.178 61.3822 181.954 61.1102 181.802C60.8382 181.642 60.5462 181.562 60.2342 181.562C59.9222 181.562 59.6342 181.638 59.3702 181.79C59.1062 181.942 58.8902 182.166 58.7222 182.462C58.5622 182.75 58.4822 183.094 58.4822 183.494C58.4822 183.894 58.5622 184.246 58.7222 184.55C58.8902 184.846 59.1062 185.074 59.3702 185.234C59.6422 185.394 59.9302 185.474 60.2342 185.474C60.5462 185.474 60.8382 185.398 61.1102 185.246C61.3822 185.086 61.5982 184.862 61.7582 184.574C61.9182 184.278 61.9982 183.926 61.9982 183.518ZM68.283 186.95C67.643 186.95 67.067 186.81 66.555 186.53C66.043 186.242 65.639 185.838 65.343 185.318C65.055 184.798 64.911 184.198 64.911 183.518C64.911 182.838 65.059 182.238 65.355 181.718C65.659 181.198 66.071 180.798 66.591 180.518C67.111 180.23 67.691 180.086 68.331 180.086C68.971 180.086 69.551 180.23 70.071 180.518C70.591 180.798 70.999 181.198 71.295 181.718C71.599 182.238 71.751 182.838 71.751 183.518C71.751 184.198 71.595 184.798 71.283 185.318C70.979 185.838 70.563 186.242 70.035 186.53C69.515 186.81 68.931 186.95 68.283 186.95ZM68.283 185.486C68.587 185.486 68.871 185.414 69.135 185.27C69.407 185.118 69.623 184.894 69.783 184.598C69.943 184.302 70.023 183.942 70.023 183.518C70.023 182.886 69.855 182.402 69.519 182.066C69.191 181.722 68.787 181.55 68.307 181.55C67.827 181.55 67.423 181.722 67.095 182.066C66.775 182.402 66.615 182.886 66.615 183.518C66.615 184.15 66.771 184.638 67.083 184.982C67.403 185.318 67.803 185.486 68.283 185.486ZM74.6633 181.226C74.8793 180.874 75.1593 180.598 75.5033 180.398C75.8553 180.198 76.2553 180.098 76.7033 180.098V181.862H76.2593C75.7313 181.862 75.3313 181.986 75.0593 182.234C74.7953 182.482 74.6633 182.914 74.6633 183.53V186.842H72.9833V180.194H74.6633V181.226ZM84.0149 183.374C84.0149 183.614 83.9989 183.83 83.9669 184.022H79.1069C79.1469 184.502 79.3149 184.878 79.6109 185.15C79.9069 185.422 80.2709 185.558 80.7029 185.558C81.3269 185.558 81.7709 185.29 82.0349 184.754H83.8469C83.6549 185.394 83.2869 185.922 82.7429 186.338C82.1989 186.746 81.5309 186.95 80.7389 186.95C80.0989 186.95 79.5229 186.81 79.0109 186.53C78.5069 186.242 78.1109 185.838 77.8229 185.318C77.5429 184.798 77.4029 184.198 77.4029 183.518C77.4029 182.83 77.5429 182.226 77.8229 181.706C78.1029 181.186 78.4949 180.786 78.9989 180.506C79.5029 180.226 80.0829 180.086 80.7389 180.086C81.3709 180.086 81.9349 180.222 82.4309 180.494C82.9349 180.766 83.3229 181.154 83.5949 181.658C83.8749 182.154 84.0149 182.726 84.0149 183.374ZM82.2749 182.894C82.2669 182.462 82.1109 182.118 81.8069 181.862C81.5029 181.598 81.1309 181.466 80.6909 181.466C80.2749 181.466 79.9229 181.594 79.6349 181.85C79.3549 182.098 79.1829 182.446 79.1189 182.894H82.2749ZM88.9251 180.098C89.7171 180.098 90.3571 180.35 90.8451 180.854C91.3331 181.35 91.5771 182.046 91.5771 182.942V186.842H89.8971V183.17C89.8971 182.642 89.7651 182.238 89.5011 181.958C89.2371 181.67 88.8771 181.526 88.4211 181.526C87.9571 181.526 87.5891 181.67 87.3171 181.958C87.0531 182.238 86.9211 182.642 86.9211 183.17V186.842H85.2411V180.194H86.9211V181.022C87.1451 180.734 87.4291 180.51 87.7731 180.35C88.1251 180.182 88.5091 180.098 88.9251 180.098ZM95.7787 180.086C96.2747 180.086 96.7107 180.186 97.0867 180.386C97.4627 180.578 97.7587 180.83 97.9747 181.142V180.194H99.6667V186.89C99.6667 187.506 99.5427 188.054 99.2947 188.534C99.0467 189.022 98.6747 189.406 98.1787 189.686C97.6827 189.974 97.0827 190.118 96.3787 190.118C95.4347 190.118 94.6587 189.898 94.0507 189.458C93.4507 189.018 93.1107 188.418 93.0307 187.658H94.6987C94.7867 187.962 94.9747 188.202 95.2627 188.378C95.5587 188.562 95.9147 188.654 96.3307 188.654C96.8187 188.654 97.2147 188.506 97.5187 188.21C97.8227 187.922 97.9747 187.482 97.9747 186.89V185.858C97.7587 186.17 97.4587 186.43 97.0747 186.638C96.6987 186.846 96.2667 186.95 95.7787 186.95C95.2187 186.95 94.7067 186.806 94.2427 186.518C93.7787 186.23 93.4107 185.826 93.1387 185.306C92.8747 184.778 92.7427 184.174 92.7427 183.494C92.7427 182.822 92.8747 182.226 93.1387 181.706C93.4107 181.186 93.7747 180.786 94.2307 180.506C94.6947 180.226 95.2107 180.086 95.7787 180.086ZM97.9747 183.518C97.9747 183.11 97.8947 182.762 97.7347 182.474C97.5747 182.178 97.3587 181.954 97.0867 181.802C96.8147 181.642 96.5227 181.562 96.2107 181.562C95.8987 181.562 95.6107 181.638 95.3467 181.79C95.0827 181.942 94.8667 182.166 94.6987 182.462C94.5387 182.75 94.4587 183.094 94.4587 183.494C94.4587 183.894 94.5387 184.246 94.6987 184.55C94.8667 184.846 95.0827 185.074 95.3467 185.234C95.6187 185.394 95.9067 185.474 96.2107 185.474C96.5227 185.474 96.8147 185.398 97.0867 185.246C97.3587 185.086 97.5747 184.862 97.7347 184.574C97.8947 184.278 97.9747 183.926 97.9747 183.518Z" fill="#7FBCD2"/>
<g filter="url(#filter0_d_1304_5819)">
<path d="M151 74.7556C151 115.505 118.492 148.511 78.4244 148.511C38.3569 148.511 5.84863 115.505 5.84863 74.7556C5.84863 34.0065 38.3569 1 78.4244 1C118.492 1 151 34.0065 151 74.7556Z" stroke="#7FBCD2" stroke-width="2" shape-rendering="crispEdges"/>
</g>
<path d="M88.1164 33.1802H78.917V84.8281H88.1164V33.1802Z" fill="#F77F00"/>
<path d="M83.5163 33.1802H76.208V84.8281H83.5163V33.1802Z" fill="#FFBA30"/>
<path d="M79.3957 24.7588H70.1963V76.4067H79.3957V24.7588Z" fill="#F77F00"/>
<path d="M74.7966 24.7588H67.4883V76.4067H74.7966V24.7588Z" fill="#FFBA30"/>
<path d="M90.8168 30.207L79.4756 80.5537L88.4443 82.6375L99.7854 32.2909L90.8168 30.207Z" fill="#F77F00"/>
<path d="M88.2163 29.6016L76.877 79.9482L83.9999 81.6057L95.3411 31.2591L88.2163 29.6016Z" fill="#FFBA30"/>
<path d="M100.784 40.1104L89.4424 90.457L98.4111 92.5408L109.75 42.1942L100.784 40.1104Z" fill="#F77F00"/>
<path d="M98.1371 39.5L86.7959 89.8448L93.9189 91.5023L105.26 41.1556L98.1371 39.5Z" fill="#FFBA30"/>
<path d="M67.4838 31.6514L58.4043 33.1557L66.5936 84.128L75.6731 82.6219L67.4838 31.6514Z" fill="#F77F00"/>
<path d="M62.9599 32.396L55.7461 33.592L63.9354 84.5644L71.1493 83.3683L62.9599 32.396Z" fill="#FFBA30"/>
<path d="M59.2084 40.5864L50.1289 42.0926L58.3183 93.0649L67.3977 91.5588L59.2084 40.5864Z" fill="#F77F00"/>
<path d="M54.669 41.3408L47.457 42.5369L55.6464 93.5074L62.8584 92.3113L54.669 41.3408Z" fill="#FFBA30"/>
<path d="M86.4356 44.5688H77.2344V96.2168H86.4356V44.5688Z" fill="#F77F00"/>
<path d="M81.8355 44.5688H74.5254V96.2168H81.8355V44.5688Z" fill="#FFBA30"/>
<path d="M98.694 53.2275C98.694 53.2275 94.4903 61.2935 78.7293 61.2935C62.9683 61.2935 58.7646 53.2275 58.7646 53.2275H45.8066L52.8115 117.046H104.647L111.652 53.2275H98.694Z" fill="#D62828"/>
<path d="M104.645 117.047L106.631 99.0156C101.82 95.6231 91.6873 89.7646 78.7275 89.7646C65.7677 89.7646 55.7508 95.5769 50.9404 98.9934L52.8097 117.047H104.645Z" fill="white"/>
<path d="M78.7305 86.2041C66.1213 86.2041 56.4787 95.2907 50.8271 98.9933L52.8127 117.047H104.648L107.07 95.0305C101.418 91.3298 91.3397 86.2041 78.7305 86.2041Z" fill="#EFE7D7"/>
<path d="M50.8268 99.0154C55.6372 95.6229 65.7703 89.7645 78.7301 89.7645C91.6899 89.7645 101.823 95.5989 106.633 99.0154L107.496 91.1156C101.285 87.2967 91.1758 82.6694 78.7301 82.6694C66.2844 82.6694 56.1749 87.3207 49.9639 91.1156L50.8268 99.0154Z" fill="#AB2020"/>
<path opacity="0.2" d="M77.3066 117.048H104.649L106.634 99.0166C102.407 96.0283 94.0723 91.1647 83.3542 90.0259L77.3066 117.048Z" fill="#8E8E8E"/>
<path opacity="0.2" d="M84.893 83.0493L84.1228 86.5138L83.3525 90.0004C94.0942 91.1393 102.405 96.0028 106.633 98.9929L107.076 95.0061L107.495 91.0913C102.336 87.9369 94.5139 84.2361 84.893 83.0493Z" fill="black"/>
<path opacity="0.2" d="M111.653 53.2275H98.6954C98.6954 53.2275 96.6626 57.1184 90.1482 59.4902L84.8945 83.0494C94.5154 84.2362 102.338 87.937 107.497 91.1153L111.653 53.2275Z" fill="black"/>
<defs>
<filter id="filter0_d_1304_5819" x="0.848633" y="0" width="155.151" height="157.511" filterUnits="userSpaceOnUse" color-interpolation-filters="sRGB">
<feFlood flood-opacity="0" result="BackgroundImageFix"/>
<feColorMatrix in="SourceAlpha" type="matrix" values="0 0 0 0 0 0 0 0 0 0 0 0 0 0 0 0 0 0 127 0" result="hardAlpha"/>
<feOffset dy="4"/>
<feGaussianBlur stdDeviation="2"/>
<feComposite in2="hardAlpha" operator="out"/>
<feColorMatrix type="matrix" values="0 0 0 0 0 0 0 0 0 0 0 0 0 0 0 0 0 0 0.25 0"/>
<feBlend mode="normal" in2="BackgroundImageFix" result="effect1_dropShadow_1304_5819"/>
<feBlend mode="normal" in="SourceGraphic" in2="effect1_dropShadow_1304_5819" result="shape"/>
</filter>
</defs>
</svg>
