<svg width="283" height="261" viewBox="0 0 283 261" fill="none" xmlns="http://www.w3.org/2000/svg">
<path d="M140.24 137.424L140.505 126.239C133.183 127.701 122.62 127.333 116.979 120.172C111.747 113.587 112.691 103.496 115.039 89.3755C115.667 86.7103 116.035 82.7902 116.403 78.7665C117.238 69.7752 118.7 58.7921 123.461 52.4658C130.777 42.588 143.429 37.3555 158.908 37.3555C160.106 37.3555 161.36 37.3555 162.564 37.4648C180.448 38.4549 194.615 54.1409 194.091 71.3409C193.832 79.394 192.732 94.3432 191.633 113.115C191.27 118.813 190.275 138.316 190.275 138.316L140.24 137.424Z" fill="#F7C8BA"/>
<path opacity="0.2" d="M140.505 126.239L140.188 139.83L154.251 121.375C146.567 125.036 140.505 126.239 140.505 126.239Z" fill="#BC745F"/>
<path d="M127.801 105.533C128.584 110.184 136.896 110.08 136.424 103.495L127.801 105.533Z" fill="#BC745F"/>
<path d="M140.919 91.4701C142.105 91.4701 143.066 90.5146 143.066 89.323C143.066 88.1429 142.105 87.1816 140.919 87.1816C139.739 87.1816 138.778 88.1429 138.778 89.323C138.778 90.5146 139.739 91.4701 140.919 91.4701Z" fill="#30242A"/>
<path d="M122.568 89.272C123.76 89.272 124.715 88.3107 124.715 87.1306C124.715 85.9506 123.76 84.9893 122.568 84.9893C121.388 84.9893 120.427 85.9506 120.427 87.1306C120.427 88.3107 121.388 89.272 122.568 89.272Z" fill="#30242A"/>
<path d="M188.812 46.5595C201.603 46.5595 211.97 36.1924 211.97 23.396C211.97 10.6054 201.603 0.238281 188.812 0.238281C176.016 0.238281 165.649 10.6054 165.649 23.396C165.649 36.1924 176.016 46.5595 188.812 46.5595Z" fill="#D62828"/>
<path d="M18.793 231.999C9.01297 227.296 -9.80449 211.766 6.24418 170.936C11.4709 155.877 19.4722 140.249 27.6808 129.162C27.6808 129.162 22.0856 122.577 23.6513 115.986C25.2746 109.401 67.2556 95.4415 67.2556 95.4415C67.2556 95.3897 72.2751 112.169 72.2751 112.169C73.2191 121.529 66.7836 149.816 61.8734 163.775C59.5191 170.36 57.5331 176.007 56.5373 179.3C56.5891 179.248 61.7698 175.852 69.0343 171.247L93.0843 219.974C79.0215 226.669 46.0838 242.562 18.793 231.999Z" fill="#F7C8BA"/>
<path d="M21.0378 119.02C20.2031 119.02 19.5239 118.865 19.1037 118.548C15.3908 116.038 18.3726 106.995 21.1472 101.82C23.8642 96.7488 26.4257 95.9659 27.6806 95.9659C28.0951 95.9659 28.3599 96.0695 28.3599 96.0695C30.294 92.0459 33.742 91.2054 36.2518 91.2054C37.9787 91.2054 39.2854 91.6256 39.2854 91.6256C41.5879 89.5879 43.9365 88.5402 46.239 88.5402C49.0078 88.5402 50.7347 90.1117 50.7865 90.1117C50.7865 90.0599 53.4517 85.8232 58.1604 85.8232C58.7878 85.8232 59.4671 85.9269 60.1463 86.0823C62.6561 86.6579 66.7316 91.2572 67.7274 97.3244L59.7261 100.462C59.7261 100.513 58.4194 107.835 53.5611 109.505C52.4616 109.873 51.414 110.08 50.4757 110.08C48.8524 110.08 47.9659 109.505 47.9659 109.505C47.9659 109.557 45.5598 114.104 41.0641 114.104C40.8569 114.104 40.5921 114.104 40.3848 114.052C37.3512 113.741 36.8274 112.066 36.8274 112.015C36.8274 112.118 36.2518 116.614 30.766 117.61C30.5012 117.662 30.294 117.662 30.0868 117.662C27.8878 117.662 26.7366 115.572 26.7366 115.572C25.6429 117.978 23.1331 119.02 21.0378 119.02Z" fill="#F7C8BA"/>
<path d="M253.433 207.691C250.083 197.548 241.667 171.196 229.17 155.567C228.387 154.675 227.552 153.789 226.712 153.006C213.541 139.15 192.888 137.268 192.888 137.268L192.577 131.725L140.292 131.621L139.768 137.268C129.735 137.792 120.272 139.726 105.789 147.831C94.391 154.209 81.8422 162.573 68.0903 171.72L92.2497 220.343C99.9344 216.734 104.689 213.545 104.689 213.545L98.9903 265.358H203.554L213.904 216.21L218.141 215.324L253.433 207.691Z" fill="#7FBCD2"/>
<path opacity="0.2" d="M106.416 197.393L96.0659 218.513C101.5 215.744 104.689 213.597 104.689 213.597L106.416 197.393Z" fill="black"/>
<path d="M104.378 177.004L109.657 186.933C110.86 189.184 114.256 188.608 114.573 186.047L116.138 174.022C116.351 172.56 117.658 171.564 119.12 171.771L131.928 173.446C134.438 173.757 135.952 170.677 134.069 168.899L125.809 161.105C124.715 160.063 124.715 158.284 125.867 157.236L134.018 149.816C135.9 148.09 134.438 144.952 131.928 145.269L120.058 146.783C118.493 146.99 117.082 145.735 117.082 144.118V142.287C113.68 143.697 109.968 145.476 105.84 147.773C98.2591 152.01 90.1542 157.133 81.5312 162.831L89.5268 165.393C90.8853 165.813 91.6221 167.224 91.2537 168.634L88.1165 179.876C87.4373 182.334 90.3154 184.268 92.3013 182.645L100.401 176.163C101.655 175.121 103.59 175.536 104.378 177.004Z" fill="#FFCC1D"/>
<path d="M175.268 204.185L181.179 215.531C182.273 217.678 179.976 219.975 177.829 218.881L167.168 213.39C165.804 212.659 164.083 213.39 163.663 214.904L160.526 225.518C159.846 227.821 156.606 227.873 155.823 225.622L151.793 213.965C151.379 212.71 150.02 212.031 148.765 212.394L135.952 216.314C133.655 216.999 131.825 214.328 133.287 212.446L141.915 201.313C142.802 200.213 142.543 198.596 141.34 197.756L132.924 191.953C131.042 190.646 131.773 187.716 134.07 187.457L146.515 186.099C147.77 185.944 148.714 184.948 148.714 183.693L148.869 172.243C148.921 169.837 152.006 168.899 153.365 170.885L159.012 179.197C159.898 180.504 161.781 180.659 162.828 179.508L171.296 170.62C172.971 168.847 175.895 170.309 175.532 172.715L173.495 185.264C173.282 186.623 174.226 187.878 175.584 188.085L187.661 189.915C190.015 190.278 190.533 193.467 188.444 194.567L176.367 200.789C175.112 201.468 174.64 202.93 175.268 204.185Z" fill="#FFCC1D"/>
<path d="M125.867 259.711L136.165 256.781C138.151 256.206 138.202 253.385 136.216 252.758L123.04 248.573C122.05 248.262 121.423 247.214 121.63 246.173L124.399 231.425C124.767 229.439 122.413 228.132 120.899 229.491L111.067 238.482C110.181 239.322 108.77 239.219 108.033 238.275L102.703 231.741L98.9902 265.514H126.96L124.871 263.263C123.823 262.014 124.347 260.132 125.867 259.711Z" fill="#FFCC1D"/>
<path d="M229.17 155.567C228.387 154.675 227.552 153.788 226.712 153.005C226.245 152.481 225.722 152.009 225.25 151.537L224.778 151.854L224.202 150.754C224.047 150.495 223.891 150.231 223.632 150.075C219.816 146.834 215.683 144.376 211.659 142.546L210.663 151.485C210.508 152.792 209.356 153.736 208.05 153.633L195.662 152.689C193.308 152.533 192.105 155.463 193.883 157.029L202.144 163.931C203.399 165.03 203.295 167.016 201.827 167.903L192.888 173.446C190.85 174.701 191.633 177.838 194.039 177.993L207.998 178.828C209.253 178.886 210.191 179.876 210.3 181.131L211.394 197.289C211.555 199.741 214.848 200.42 215.999 198.227L222.325 185.995C223.005 184.74 224.622 184.268 225.825 185.051L234.972 190.905C236.912 192.16 239.364 190.226 238.581 188.032L234.868 177.262C234.402 175.852 235.289 174.332 236.751 174.073L240.153 173.446C236.912 166.964 233.251 160.69 229.17 155.567Z" fill="#FFCC1D"/>
<path d="M106.836 193.836L104.689 213.442" stroke="black" stroke-width="2" stroke-linecap="round" stroke-linejoin="round"/>
<path d="M59.623 122.105L62.1328 116.51C62.1328 116.458 64.1187 112.279 66.7321 108.146C69.1383 104.33 72.6439 99.7822 75.5163 99.7822C75.6199 99.7822 75.6717 99.7822 75.7811 99.7822C76.7712 99.8858 77.554 100.306 78.0779 101.037C79.9084 103.65 78.4463 109.873 76.9266 116.458L76.7712 117.034C73.5303 130.734 66.7839 149.816 61.8738 163.775C61.822 163.931 61.7701 164.034 61.6608 164.19" fill="#F7C8BA"/>
<path d="M191.581 271.057C181.594 263.476 174.853 256.574 174.801 256.47H174.75C173.806 256.47 165.177 256.257 154.775 249.361C154.775 249.361 154.775 249.361 154.723 249.361C154.044 249.361 147.039 249.304 140.033 248.625C133.235 247.945 125.026 246.587 124.451 243.611C124.347 243.139 124.503 242.719 124.767 242.298C126.546 239.95 134.755 239.058 140.712 238.378C141.864 238.275 142.906 238.119 143.85 238.016C143.642 238.016 124.612 234.355 118.286 229.283C116.611 227.977 115.615 225.778 115.828 223.953C115.983 222.802 116.559 221.909 117.549 221.443C117.497 221.443 114.412 217.31 116.714 214.645C117.497 213.701 118.913 213.125 121.055 212.866C121.003 212.866 118.856 210.149 120.22 207.536C121.158 205.705 124.399 204.761 129.787 204.761C134.91 204.761 141.967 205.602 150.803 207.219C147.459 203.823 147.039 199.794 148.086 197.341C148.604 196.086 149.548 195.298 150.487 195.298C150.539 195.298 150.59 195.298 150.59 195.298C154.516 195.563 205.437 225.991 205.961 226.301V217.258C206.168 217.051 252.961 206.488 252.961 206.488C269.113 254.847 262.58 272.415 257.192 279.893C252.857 286.006 230.586 298.4 191.581 271.057Z" fill="#F7C8BA"/>
<path d="M164.866 103.024L171.296 100.203" stroke="#B86E58" stroke-width="2" stroke-linecap="round" stroke-linejoin="round"/>
<path d="M140.344 126.239C143.901 125.399 148.138 124.305 152.162 122.313" stroke="#B86E58" stroke-width="2" stroke-linecap="round" stroke-linejoin="round"/>
<path d="M129.787 92.8281L129.315 94.6586C128.946 95.6487 129.315 96.7482 130.046 97.4792L130.31 97.744" stroke="#B86E58" stroke-width="2" stroke-linecap="round" stroke-linejoin="round"/>
<path d="M56.2264 123.832C54.6032 124.091 45.9284 124.983 42.5264 132.616" stroke="#B86E58" stroke-width="2" stroke-linecap="round"/>
<path d="M57.1126 178.046L51.103 193.784" stroke="#B86E58" stroke-width="2" stroke-linecap="round" stroke-linejoin="round"/>
<path d="M28.3602 96.0703C27.0017 101.193 25.695 108.199 26.7369 115.573" stroke="#B86E58" stroke-width="2" stroke-linecap="round"/>
<path d="M39.2912 91.626C37.9845 95.5978 35.9986 101.769 36.8333 112.015" stroke="#B86E58" stroke-width="2" stroke-linecap="round"/>
<path d="M51.1553 90.2148C50.6315 94.0313 47.9663 100.985 47.9663 109.504" stroke="#B86E58" stroke-width="2" stroke-linecap="round"/>
<path d="M59.623 94.084C59.623 94.084 59.9914 97.0082 59.7267 100.462" stroke="#B86E58" stroke-width="2" stroke-linecap="round"/>
<path d="M205.96 226.302C209.828 228.656 214.272 232.001 230.586 239.95" stroke="#B86E58" stroke-width="2" stroke-linecap="round" stroke-linejoin="round"/>
<path d="M150.803 207.22C154.671 208.112 162.149 210.046 165.804 211.405" stroke="#B86E58" stroke-width="2" stroke-linecap="round" stroke-linejoin="round"/>
<path d="M143.901 238.066L153.157 238.694" stroke="#B86E58" stroke-width="2" stroke-linecap="round" stroke-linejoin="round"/>
<path d="M117.606 221.074C127.743 221.546 143.953 225.777 154.879 228.759" stroke="#B86E58" stroke-width="2" stroke-linecap="round" stroke-linejoin="round"/>
<path d="M121.106 212.866C133.131 213.338 148.086 216.372 156.812 218.933" stroke="#B86E58" stroke-width="2" stroke-linecap="round" stroke-linejoin="round"/>
<path d="M205.96 192.528V226.301" stroke="black" stroke-width="2" stroke-linecap="round" stroke-linejoin="round"/>
<path d="M249.196 195.297C241.615 175.432 236.124 165.917 236.124 165.917C228.859 168.271 219.396 170.62 213.801 170.62C199.318 170.62 188.081 166.233 180.448 157.604C166.173 141.659 168.941 115.411 169.206 114.317C169.206 114.317 186.665 104.646 182.59 92.201C176.839 80.4869 162.408 90.6295 162.408 90.6295C161.257 85.5582 161.573 81.1143 163.559 76.043C161.729 76.3078 160.629 76.4114 159.167 76.4114C151.741 76.4114 149.393 73.5908 148.293 71.2882C146.831 68.4676 147.459 64.5936 149.859 61.301C141.812 65.5895 131.825 66.3205 126.857 65.5895C120.531 64.7548 118.913 61.9284 118.913 61.9284C119.644 59.0042 121.262 55.7058 121.262 55.7058C121.262 55.7058 122.62 53.2537 123.357 52.4132C130.673 42.5354 143.326 37.1992 158.799 37.1992C160.002 37.1992 161.257 37.1992 162.46 37.3028C180.339 38.2987 194.615 53.0407 194.143 70.2924C194.039 74.9493 194.039 80.1242 193.463 92.8803C202.455 88.6436 211.291 87.9643 218.82 88.54C240.671 90.2151 252.748 106.788 250.555 127.073C252.644 127.436 278.421 128.639 282.606 153.995C287.257 187.088 249.196 195.297 249.196 195.297Z" fill="#D62828"/>
<path d="M171.923 39.2373C176.056 40.7052 179.763 42.8983 182.952 45.6729" stroke="#FEB62C" stroke-width="4" stroke-linecap="round" stroke-linejoin="round"/>
<path d="M250.451 127.074C242.191 126.602 235.812 128.904 235.812 128.904" stroke="#BD2F2F" stroke-width="2" stroke-linecap="round" stroke-linejoin="round"/>
<path d="M236.123 165.97C243.917 163.046 246.945 159.488 246.945 159.488" stroke="#BD2F2F" stroke-width="2" stroke-linecap="round" stroke-linejoin="round"/>
<path d="M193.36 92.8809L193.043 100.203" stroke="#BD2F2F" stroke-width="2" stroke-linecap="round" stroke-linejoin="round"/>
</svg>
