<svg width="156" height="190" viewBox="0 0 156 190" fill="none" xmlns="http://www.w3.org/2000/svg">
<path d="M70.5137 166.466V174.842H68.8337V169.394L66.5897 174.842H65.3177L63.0617 169.394V174.842H61.3817V166.466H63.2897L65.9537 172.694L68.6177 166.466H70.5137ZM73.0267 167.402C72.7307 167.402 72.4827 167.31 72.2827 167.126C72.0907 166.934 71.9947 166.698 71.9947 166.418C71.9947 166.138 72.0907 165.906 72.2827 165.722C72.4827 165.53 72.7307 165.434 73.0267 165.434C73.3227 165.434 73.5667 165.53 73.7587 165.722C73.9587 165.906 74.0587 166.138 74.0587 166.418C74.0587 166.698 73.9587 166.934 73.7587 167.126C73.5667 167.31 73.3227 167.402 73.0267 167.402ZM73.8547 168.194V174.842H72.1747V168.194H73.8547ZM81.6945 171.374C81.6945 171.614 81.6785 171.83 81.6465 172.022H76.7865C76.8265 172.502 76.9945 172.878 77.2905 173.15C77.5865 173.422 77.9505 173.558 78.3825 173.558C79.0065 173.558 79.4505 173.29 79.7145 172.754H81.5265C81.3345 173.394 80.9665 173.922 80.4225 174.338C79.8785 174.746 79.2105 174.95 78.4185 174.95C77.7785 174.95 77.2025 174.81 76.6905 174.53C76.1865 174.242 75.7905 173.838 75.5025 173.318C75.2225 172.798 75.0825 172.198 75.0825 171.518C75.0825 170.83 75.2225 170.226 75.5025 169.706C75.7825 169.186 76.1745 168.786 76.6785 168.506C77.1825 168.226 77.7625 168.086 78.4185 168.086C79.0505 168.086 79.6145 168.222 80.1105 168.494C80.6145 168.766 81.0025 169.154 81.2745 169.658C81.5545 170.154 81.6945 170.726 81.6945 171.374ZM79.9545 170.894C79.9465 170.462 79.7905 170.118 79.4865 169.862C79.1825 169.598 78.8105 169.466 78.3705 169.466C77.9545 169.466 77.6025 169.594 77.3145 169.85C77.0345 170.098 76.8625 170.446 76.7985 170.894H79.9545Z" fill="#7FBCD2"/>
<g filter="url(#filter0_d_1304_5783)">
<path d="M150.575 74.7556C150.575 115.505 118.067 148.511 77.9996 148.511C37.9321 148.511 5.42383 115.505 5.42383 74.7556C5.42383 34.0065 37.9321 1 77.9996 1C118.067 1 150.575 34.0065 150.575 74.7556Z" stroke="#7FBCD2" stroke-width="2" shape-rendering="crispEdges"/>
</g>
<path d="M124.408 71.9976C124.408 71.9976 108.184 94.4326 75.8521 94.4326C43.5199 94.4326 27.2959 71.9976 27.2959 71.9976H124.408Z" fill="#7FBCD2"/>
<path d="M85.4521 81.4965C83.6267 88.662 76.4386 92.9662 69.3862 91.1115C62.4696 89.3043 58.2333 82.2294 59.8339 75.1566C61.5681 67.9686 70.2878 56.9332 77.3624 58.6725C84.437 60.4141 87.164 74.3085 85.4521 81.4965Z" fill="#FFCC1D"/>
<path d="M72.6321 85.4346C76.4899 85.4346 79.6154 82.2568 79.6154 78.3393C79.6154 74.4196 76.4899 71.2417 72.6321 71.2417C68.7742 71.2417 65.6465 74.4196 65.6465 78.3393C65.6465 82.2568 68.7742 85.4346 72.6321 85.4346Z" fill="#EFE7D7"/>
<path opacity="0.2" d="M69.3862 91.1122C70.2433 91.3429 71.1226 91.4786 71.9774 91.5261C73.3754 91.456 74.7267 91.1597 76.0111 90.6553C76.394 88.389 76.236 86.0073 75.4702 83.6731C73.7583 78.4528 68.351 71.6085 62.7167 68.6094C61.3432 70.8531 60.3058 73.1421 59.8339 75.1573C58.2333 82.2301 62.4696 89.305 69.3862 91.1122Z" fill="#F77F00"/>
<path d="M72.7899 82.6414C75.2898 90.2434 71.2338 98.4606 63.754 101.003C56.2742 103.543 48.1845 99.4241 45.6846 91.8221C43.1824 84.2224 44.9166 68.9755 52.3986 66.4332C59.8783 63.8932 70.2877 75.0191 72.7899 82.6414Z" fill="#FFCC1D"/>
<path d="M59.2478 94.9147C63.4285 94.9147 66.8166 91.4699 66.8166 87.2222C66.8166 82.9723 63.4285 79.5298 59.2478 79.5298C55.0649 79.5298 51.6768 82.9723 51.6768 87.2222C51.6768 91.4699 55.0649 94.9147 59.2478 94.9147Z" fill="#EFE7D7"/>
<path d="M78.7588 91.9141C78.0598 91.6155 77.7215 90.8149 78.0153 90.1046L107.262 15.8853L111.835 17.8327L80.562 91.1813C80.2681 91.8915 79.4578 92.2104 78.7588 91.9141Z" fill="#F77F00"/>
<path d="M104.265 35.597L111.836 17.8327L107.263 15.8853L100.164 33.8577L104.265 35.597Z" fill="#FFCC1D"/>
<path d="M109.538 19.3667C110.908 19.3667 112.016 18.238 112.016 16.847C112.016 15.456 110.908 14.3296 109.538 14.3296C108.167 14.3296 107.059 15.456 107.059 16.847C107.059 18.238 108.167 19.3667 109.538 19.3667Z" fill="#D62828"/>
<path d="M78.6244 98.8043C78.0166 98.3701 77.8586 97.4993 78.286 96.8818L122.808 30.9497L126.864 33.8584L80.5166 98.4854C80.0892 99.1029 79.2321 99.2409 78.6244 98.8043Z" fill="#F77F00"/>
<path d="M112.535 46.1514L116.173 48.7683L126.865 33.881L122.809 30.9497L112.535 46.1514Z" fill="#FFCC1D"/>
<path d="M124.818 34.962C126.192 34.962 127.303 33.831 127.303 32.4355C127.303 31.0422 126.192 29.9136 124.818 29.9136C123.447 29.9136 122.334 31.0422 122.334 32.4355C122.334 33.831 123.447 34.962 124.818 34.962Z" fill="#D62828"/>
<path opacity="0.2" d="M49.8959 98.2092C53.0971 96.8137 55.3499 93.5612 55.3499 89.8088C55.3499 84.9097 51.5855 80.9244 46.8328 80.6733C46.1115 80.696 45.4125 80.8113 44.7602 81.0171C44.3996 84.9776 44.7357 88.9607 45.7063 91.8445C46.5166 94.3868 48.0037 96.5604 49.8959 98.2092Z" fill="#F77F00"/>
<path d="M44.6696 97.4087C49.6472 97.4087 53.6831 93.308 53.6831 88.2506C53.6831 83.1931 49.6472 79.0947 44.6696 79.0947C39.6919 79.0947 35.6582 83.1931 35.6582 88.2506C35.6582 93.308 39.6919 97.4087 44.6696 97.4087Z" fill="#F77F00"/>
<path d="M44.6675 93.4022C47.468 93.4022 49.7364 91.0951 49.7364 88.2498C49.7364 85.4044 47.468 83.0996 44.6675 83.0996C41.8671 83.0996 39.5986 85.4044 39.5986 88.2498C39.5986 91.0951 41.8671 93.4022 44.6675 93.4022Z" fill="#EFE7D7"/>
<path d="M106.34 103.52C113.495 103.52 119.294 97.6281 119.294 90.3564C119.294 83.0869 113.495 77.1948 106.34 77.1948C99.1828 77.1948 93.3838 83.0869 93.3838 90.3564C93.3838 97.6281 99.1828 103.52 106.34 103.52Z" fill="#F77F00"/>
<path d="M106.314 99.5366C111.292 99.5366 115.328 95.4359 115.328 90.3808C115.328 85.3233 111.292 81.2227 106.314 81.2227C101.339 81.2227 97.3027 85.3233 97.3027 90.3808C97.3027 95.4359 101.339 99.5366 106.314 99.5366Z" fill="#EFE7D7"/>
<path d="M106.315 95.5306C109.118 95.5306 111.386 93.2258 111.386 90.3804C111.386 87.5328 109.118 85.228 106.315 85.228C103.515 85.228 101.246 87.5328 101.246 90.3804C101.246 93.2258 103.515 95.5306 106.315 95.5306Z" fill="#F77F00"/>
<path opacity="0.2" d="M98.2268 80.123C95.8159 82.0931 94.0795 84.9317 93.563 88.2724C92.4121 95.4378 97.2117 102.214 104.264 103.384C104.805 103.474 105.368 103.519 105.909 103.542C106.519 101.574 106.833 99.4684 106.833 97.2699C106.833 90.2198 103.431 83.9704 98.2268 80.123Z" fill="#F77F00"/>
<path d="M62.4248 69.0918C67.1331 72.5026 71.3248 78.1798 72.7896 82.6424" stroke="#7FBCD2" stroke-width="2" stroke-linecap="round" stroke-linejoin="round"/>
<path d="M83.558 117.277C95.0693 117.277 104.399 107.798 104.399 96.1019C104.399 84.4061 95.0693 74.9268 83.558 74.9268C72.0468 74.9268 62.7148 84.4061 62.7148 96.1019C62.7148 107.798 72.0468 117.277 83.558 117.277Z" fill="#F77F00"/>
<path d="M83.5596 113.273C92.8916 113.273 100.458 105.585 100.458 96.1031C100.458 86.6215 92.8916 78.9336 83.5596 78.9336C74.2255 78.9336 66.6611 86.6215 66.6611 96.1031C66.6611 105.585 74.2255 113.273 83.5596 113.273Z" fill="#EFE7D7"/>
<path d="M83.5605 109.267C90.7153 109.267 96.5166 103.373 96.5166 96.1033C96.5166 88.8315 90.7153 82.9395 83.5605 82.9395C76.4035 82.9395 70.6045 88.8315 70.6045 96.1033C70.6045 103.373 76.4035 109.267 83.5605 109.267Z" fill="#F77F00"/>
<path d="M83.5575 105.26C88.5351 105.26 92.5689 101.161 92.5689 96.1039C92.5689 91.0465 88.5351 86.9458 83.5575 86.9458C78.5799 86.9458 74.5439 91.0465 74.5439 96.1039C74.5439 101.161 78.5799 105.26 83.5575 105.26Z" fill="#EFE7D7"/>
<path d="M83.5594 101.254C86.3599 101.254 88.6283 98.9496 88.6283 96.1043C88.6283 93.2589 86.3599 90.9541 83.5594 90.9541C80.7589 90.9541 78.4883 93.2589 78.4883 96.1043C78.4883 98.9496 80.7589 101.254 83.5594 101.254Z" fill="#F77F00"/>
<path d="M97.8662 80.1689C102.08 84.2674 104.378 89.9898 104.242 95.8976" stroke="#7FBCD2" stroke-width="2" stroke-linecap="round" stroke-linejoin="round"/>
<path d="M75.8521 94.4326C43.5199 94.4326 27.2959 71.9976 27.2959 71.9976C27.2959 99.2412 49.0407 121.332 75.8521 121.332C102.666 121.332 124.408 99.2412 124.408 71.9976C124.408 71.9976 108.184 94.4326 75.8521 94.4326Z" fill="#D62828"/>
<path opacity="0.2" d="M105.254 87.4232C99.7331 104.5 85.27 117.462 67.4922 120.6C70.2192 121.079 73.013 121.332 75.8513 121.332C102.665 121.332 124.407 99.2412 124.407 71.9976C124.407 71.9976 117.716 80.9657 105.254 87.4232Z" fill="#4A4545"/>
<path d="M113.165 103.567C111.928 101.758 110.394 100.179 107.78 100.179C104.423 100.179 102.825 102.81 101.405 105.124C99.9845 107.435 98.9716 108.878 97.1462 108.878C95.3207 108.878 94.3078 107.458 92.8876 105.124C91.4673 102.787 89.869 100.179 86.512 100.179C83.155 100.179 81.5544 102.81 80.1341 105.124C78.7161 107.435 77.701 108.878 75.8755 108.878C74.0501 108.878 73.0372 107.458 71.617 105.124C70.1989 102.787 68.5983 100.179 65.2413 100.179C61.8843 100.179 60.2838 102.81 58.8657 105.124C57.4455 107.435 56.4326 108.878 54.6072 108.878C52.7817 108.878 51.7666 107.458 50.3486 105.124C48.9283 102.787 47.3277 100.179 43.9707 100.179C41.335 100.179 39.7812 101.803 38.5635 103.613C39.1044 104.275 39.6676 104.94 40.2531 105.558C41.4263 103.748 42.3724 102.674 43.9707 102.674C45.8184 102.674 46.8113 104.092 48.2293 106.429C49.6496 108.763 51.2502 111.373 54.6072 111.373C57.9641 111.373 59.5625 108.74 60.9828 106.429C62.403 104.115 63.4159 102.674 65.2413 102.674C67.0668 102.674 68.0797 104.092 69.4999 106.429C70.9202 108.763 72.5185 111.373 75.8755 111.373C79.2325 111.373 80.8331 108.74 82.2534 106.429C83.6714 104.115 84.6865 102.674 86.512 102.674C88.3352 102.674 89.3503 104.092 90.7705 106.429C92.1886 108.763 93.7892 111.373 97.1462 111.373C100.503 111.373 102.104 108.74 103.522 106.429C104.942 104.115 105.955 102.674 107.78 102.674C109.359 102.674 110.327 103.726 111.476 105.513C112.039 104.87 112.602 104.23 113.165 103.567Z" fill="#FFCC1D"/>
<path d="M89.4375 119.385H62.2432V127.398H89.4375V119.385Z" fill="#7FBCD2"/>
<path d="M89.4375 119.385H62.2432V122.82H89.4375V119.385Z" fill="#FFCC1D"/>
<path opacity="0.2" d="M89.438 119.385H72.7666V122.82H89.438V119.385Z" fill="#A47A2A"/>
<defs>
<filter id="filter0_d_1304_5783" x="0.423828" y="0" width="155.151" height="157.511" filterUnits="userSpaceOnUse" color-interpolation-filters="sRGB">
<feFlood flood-opacity="0" result="BackgroundImageFix"/>
<feColorMatrix in="SourceAlpha" type="matrix" values="0 0 0 0 0 0 0 0 0 0 0 0 0 0 0 0 0 0 127 0" result="hardAlpha"/>
<feOffset dy="4"/>
<feGaussianBlur stdDeviation="2"/>
<feComposite in2="hardAlpha" operator="out"/>
<feColorMatrix type="matrix" values="0 0 0 0 0 0 0 0 0 0 0 0 0 0 0 0 0 0 0.25 0"/>
<feBlend mode="normal" in2="BackgroundImageFix" result="effect1_dropShadow_1304_5783"/>
<feBlend mode="normal" in="SourceGraphic" in2="effect1_dropShadow_1304_5783" result="shape"/>
</filter>
</defs>
</svg>
