<svg width="303" height="285" viewBox="0 0 303 285" fill="none" xmlns="http://www.w3.org/2000/svg">
<path d="M229.509 133.546L197.75 166.375L207.435 175.239L179.53 208.273C179.53 208.273 166.396 209.992 159.954 212.581C153.511 215.164 149.285 217.013 147.523 219.023C145.842 220.91 145.388 222.877 149.409 224.52C145.593 230.184 142.804 236.135 142.35 238.762C141.491 243.891 144.939 244.34 144.939 244.34C146.209 249.923 151.382 247.788 151.382 247.788C151.382 247.788 151.382 250.782 156.549 249.923C162.953 248.853 170.953 239.578 171.898 238.47H171.936C171.201 239.951 164.591 253.739 169.888 252.096C177.271 249.842 184.043 235.805 184.043 235.805C205.052 234.946 205.052 225.958 205.052 225.958C205.052 225.958 246.664 202.771 248.388 176.59C249.123 164.899 240.918 148.566 229.509 133.546Z" fill="#F49E73"/>
<path d="M97.3388 57.6298C97.3388 53.6086 97.0901 47.3714 97.5009 41.3828C97.5009 41.3396 97.5442 41.3017 97.5442 41.3017L134.594 20.331C134.638 20.2931 134.719 20.331 134.719 20.3742L146.663 36.5833V36.6212L158.397 74.9901C158.397 74.9901 158.397 74.9901 158.397 75.0333C159.3 84.4269 159.916 91.7343 159.954 91.9775C159.916 92.4315 157.657 124.601 138.907 124.601C120.234 124.601 122.574 99.4038 122.612 98.8741L121.342 86.6051C121.342 86.5186 121.261 86.4808 121.179 86.5186C120.028 87.178 112.148 91.4857 103.695 86.8483C94.3391 81.6813 97.3388 65.3857 97.3388 57.6298Z" fill="#F49E73"/>
<path d="M229.552 133.627C216.748 116.721 199.798 101.457 187.037 96.4904V96.4525C186.464 96.2472 185.848 96.0418 185.275 95.8364C171.774 91.3233 159.997 91.9774 159.997 91.9774C159.997 91.9774 151.83 110.856 136.81 110.856C123.925 110.856 122.655 98.8307 122.655 98.8307C122.655 98.8307 113.461 101.003 104.024 110.856C104.024 110.856 91.5933 123.985 81.3728 144.956L108.948 163.705L110.878 183.816L188.145 209.992L194.096 163.213L197.993 166.58L229.552 133.627Z" fill="#FE3232"/>
<g filter="url(#filter0_d_284_76)">
<rect x="4" y="204" width="295" height="73" rx="36" fill="#7FBCD2"/>
</g>
<path opacity="0.2" d="M122.163 94.1554L121.385 86.4373C121.385 86.4373 128.687 82.7458 132.297 80.3677L122.163 94.1554Z" fill="#171717"/>
<path opacity="0.2" d="M184.454 153.776L191.637 182.665L195.615 151.192L184.454 153.776Z" fill="#171717"/>
<path d="M98.3603 34.3236C99.3062 27.0217 116.213 15.5688 129.054 15.5688C141.534 15.5688 145.761 25.9948 148.015 43.1876C148.177 44.4577 155.154 44.0091 156.511 56.1159C157.37 63.953 157.987 70.4766 158.441 74.9896C156.96 75.0329 155.279 74.9085 153.392 74.6221C150.56 74.2113 147.069 73.2655 144.485 71.336C144.485 71.336 157.495 56.5645 146.458 49.468C140.464 45.6089 130.573 58.0401 130.573 58.0401C130.573 58.0401 124.131 50.3274 127.579 40.4365C109.565 49.8788 97.501 41.3391 97.501 41.3391C97.7064 35.7181 98.3225 34.4047 98.3603 34.3236Z" fill="#7FBCD2"/>
<path d="M142.188 59.8076L138.535 64.072" stroke="#9E664B" stroke-width="2" stroke-linecap="round" stroke-linejoin="round"/>
<path d="M107.678 63.667C107.267 64.5696 106.732 66.0451 106.981 66.8666C107.224 67.3963 107.678 67.8071 108.213 68.0125" stroke="#9E664B" stroke-width="2" stroke-linecap="round" stroke-linejoin="round"/>
<path d="M113.218 70.1094C113.256 71.7092 111.986 73.0604 110.343 73.1036C110.305 73.1036 110.262 73.1036 110.224 73.1036" stroke="#9E664B" stroke-width="2" stroke-linecap="round" stroke-linejoin="round"/>
<path d="M121.385 86.3994L129.303 82.1729" stroke="#9E664B" stroke-width="2" stroke-linecap="round" stroke-linejoin="round"/>
<path d="M115.559 58.9428C116.396 58.9428 117.077 58.2617 117.077 57.4294C117.077 56.5917 116.396 55.9106 115.559 55.9106C114.721 55.9106 114.04 56.5917 114.04 57.4294C114.04 58.2617 114.721 58.9428 115.559 58.9428Z" fill="#17151C"/>
<path d="M102.711 58.9428C103.549 58.9428 104.23 58.2617 104.23 57.4294C104.23 56.5917 103.549 55.9106 102.711 55.9106C101.874 55.9106 101.193 56.5917 101.193 57.4294C101.193 58.2617 101.874 58.9428 102.711 58.9428Z" fill="#17151C"/>
<path d="M154.5 39.7827C153.511 34.3671 153.841 28.7028 155.852 23.5736C156.057 23.0385 156.225 22.5089 156.343 21.9306C158.316 13.3963 150.106 4.20269 138.005 1.41379C125.898 -1.37511 114.488 3.26225 112.521 11.8397C112.478 12.0451 112.44 12.2451 112.397 12.4505C111.699 16.7635 109.359 20.6604 105.911 23.325C103.944 24.7627 102.182 26.5301 100.701 28.4974C99.5927 30.054 98.8144 32.1079 98.2793 34.486L156.511 56.0297C155.933 50.7383 155.279 45.7335 154.744 41.7933C154.744 41.0961 154.619 40.4367 154.5 39.7827Z" fill="#FFCC1D"/>
<path d="M161.516 191.529C150.803 186.4 111.743 180.368 111.743 180.368L109.894 163.748L81.3729 144.956C78.1732 151.479 74.6061 158.619 72.8819 166.413C71.6064 172.326 71.6929 183.238 73.2927 189.356C75.2601 196.783 78.5408 202.895 86.0914 205.317L169.434 224.072L177.395 225.423C177.395 225.423 181.703 225.423 180.844 220.704C182.978 221.115 184.454 220.499 185.562 219.434C186.832 218.159 185.562 215.121 185.562 215.121C185.562 215.121 188.556 214.716 186.421 209.992C184.373 205.522 172.228 196.701 161.516 191.529Z" fill="#F49E73"/>
<path opacity="0.2" d="M111.743 180.368L109.894 163.748L104.516 160.175L101.809 182.011L111.743 180.368Z" fill="#171717"/>
<path opacity="0.2" d="M134.8 216.316L169.434 224.109L177.395 225.466C177.395 225.466 181.703 225.466 180.844 220.748C182.978 221.158 184.454 220.542 185.562 219.472C186.832 218.202 185.562 215.164 185.562 215.164L164.634 211.349L134.8 216.316Z" fill="#171717"/>
<path opacity="0.2" d="M202.96 171.299L207.435 175.239L215.64 166.499L202.96 171.299Z" fill="#171717"/>
<path d="M111.743 180.368L100.576 182.217" stroke="#9E664B" stroke-width="2" stroke-linecap="round" stroke-linejoin="round"/>
<path d="M185.562 215.122C175.714 207.82 158.97 198.383 158.97 198.383" stroke="#9E664B" stroke-width="2" stroke-linecap="round" stroke-linejoin="round"/>
<path d="M180.595 220.953C170.504 214.716 154.619 205.273 154.619 205.273" stroke="#9E664B" stroke-width="2" stroke-linecap="round" stroke-linejoin="round"/>
<path d="M170.542 223.699C163.24 219.845 150.355 212.992 150.355 212.992" stroke="#9E664B" stroke-width="2" stroke-linecap="round" stroke-linejoin="round"/>
<path d="M207.436 175.239L213.013 169.207" stroke="#9E664B" stroke-width="2" stroke-linecap="round" stroke-linejoin="round"/>
<path d="M194.096 163.213L185.313 154.473" stroke="#B22525" stroke-width="2" stroke-linecap="round" stroke-linejoin="round"/>
<path d="M109.894 163.748L107.019 138.756" stroke="#B22525" stroke-width="2" stroke-linecap="round" stroke-linejoin="round"/>
<path d="M100.479 236.768C100.479 238.069 100.18 239.264 99.583 240.352C98.9857 241.419 98.0683 242.283 96.831 242.944C95.5937 243.605 94.0577 243.936 92.223 243.936H88.831V252H83.359V229.536H92.223C94.015 229.536 95.5297 229.845 96.767 230.464C98.0043 231.083 98.9323 231.936 99.551 233.024C100.17 234.112 100.479 235.36 100.479 236.768ZM91.807 239.584C92.8523 239.584 93.631 239.339 94.143 238.848C94.655 238.357 94.911 237.664 94.911 236.768C94.911 235.872 94.655 235.179 94.143 234.688C93.631 234.197 92.8523 233.952 91.807 233.952H88.831V239.584H91.807ZM108.8 233.92V238.464H116.128V242.688H108.8V247.616H117.088V252H103.328V229.536H117.088V233.92H108.8ZM140.736 252H135.264L126.112 238.144V252H120.64V229.536H126.112L135.264 243.456V229.536H140.736V252ZM158.783 229.536V244.832C158.783 247.2 158.111 249.024 156.767 250.304C155.444 251.584 153.652 252.224 151.391 252.224C149.023 252.224 147.124 251.552 145.695 250.208C144.265 248.864 143.551 246.955 143.551 244.48H148.991C148.991 245.419 149.183 246.133 149.567 246.624C149.951 247.093 150.505 247.328 151.231 247.328C151.892 247.328 152.404 247.115 152.767 246.688C153.129 246.261 153.311 245.643 153.311 244.832V229.536H158.783ZM168.579 229.536V242.976C168.579 244.32 168.909 245.355 169.571 246.08C170.232 246.805 171.203 247.168 172.483 247.168C173.763 247.168 174.744 246.805 175.427 246.08C176.109 245.355 176.451 244.32 176.451 242.976V229.536H181.923V242.944C181.923 244.949 181.496 246.645 180.643 248.032C179.789 249.419 178.637 250.464 177.187 251.168C175.757 251.872 174.157 252.224 172.387 252.224C170.616 252.224 169.027 251.883 167.619 251.2C166.232 250.496 165.133 249.451 164.323 248.064C163.512 246.656 163.107 244.949 163.107 242.944V229.536H168.579ZM199.749 248.032H191.365L190.021 252H184.293L192.421 229.536H198.757L206.885 252H201.093L199.749 248.032ZM198.341 243.808L195.557 235.584L192.805 243.808H198.341ZM214.831 247.776H221.999V252H209.359V229.536H214.831V247.776Z" fill="white"/>
<defs>
<filter id="filter0_d_284_76" x="0" y="204" width="303" height="81" filterUnits="userSpaceOnUse" color-interpolation-filters="sRGB">
<feFlood flood-opacity="0" result="BackgroundImageFix"/>
<feColorMatrix in="SourceAlpha" type="matrix" values="0 0 0 0 0 0 0 0 0 0 0 0 0 0 0 0 0 0 127 0" result="hardAlpha"/>
<feOffset dy="4"/>
<feGaussianBlur stdDeviation="2"/>
<feComposite in2="hardAlpha" operator="out"/>
<feColorMatrix type="matrix" values="0 0 0 0 0 0 0 0 0 0 0 0 0 0 0 0 0 0 0.25 0"/>
<feBlend mode="normal" in2="BackgroundImageFix" result="effect1_dropShadow_284_76"/>
<feBlend mode="normal" in="SourceGraphic" in2="effect1_dropShadow_284_76" result="shape"/>
</filter>
</defs>
</svg>
