<svg width="315" height="233" viewBox="0 0 315 233" fill="none" xmlns="http://www.w3.org/2000/svg">
<path d="M169.25 48.4624C168.856 43.7912 169.637 38.0243 168.62 32.4149C167.453 26.1035 164.259 20.0217 160.292 14.8847C152.815 5.06327 130.459 2.10437 111.532 10.3643C94.6321 17.6073 95.6421 32.802 95.6421 48.4624L93.5435 79.8686V94.827V97.7859L95.1764 120.696C95.1764 120.696 95.1764 120.775 95.2551 120.775L142.762 128.175C142.841 128.175 142.841 128.175 142.841 128.096V93.1868V86.2521C142.841 86.18 142.919 86.18 142.919 86.18C144.165 86.4883 157.642 89.6834 164.961 82.9062C175.008 73.9442 170.103 58.3625 169.25 48.4624Z" fill="#E5A280"/>
<path opacity="0.2" d="M129.134 80.7209L142.762 93.1141C142.84 93.1863 142.919 93.1141 142.919 93.0354V86.2516C142.919 86.2516 142.919 86.1794 142.84 86.1794C142.139 86.022 136.223 84.4605 129.291 80.5635C129.134 80.5635 129.055 80.6422 129.134 80.7209Z" fill="#695043"/>
<path d="M162.626 11.9976C155.229 2.104 129.757 -4.52232 110.831 3.73762C93.9304 10.9872 93.5435 32.4932 93.5435 48.1537V79.8682C93.5435 79.9404 93.6156 79.9403 93.6156 79.9403C100.161 79.4745 106.312 76.2007 110.752 71.372V71.2933C109.899 70.2042 96.0355 52.0508 106.856 43.0101C116.28 35.1372 127.731 49.5577 128.747 50.9551C128.747 51.0338 128.826 50.9551 128.898 50.9551L135.443 35.9967C135.443 35.9967 135.443 35.9179 135.522 35.9179L168.47 32.4145C168.548 32.4145 168.548 32.3358 168.548 32.3358C168.076 25.014 166.751 17.5282 162.626 11.9976Z" fill="#D62828"/>
<path d="M207.254 147.423V147.345C199.699 137.759 187.625 123.575 177.578 113.445C162.705 98.5658 145.883 95.292 142.919 94.8262C142.84 94.8262 142.84 94.8262 142.84 94.9049C142.762 96.3089 141.752 114.226 123.14 114.226C105.066 114.226 94.1662 95.994 93.5432 94.9049C93.5432 94.9049 93.4645 94.8262 93.4645 94.9049C82.4797 97.8638 72.354 102.85 63.317 109.555C53.8931 116.411 36.1403 135.424 21.8831 160.433V160.512L54.8309 185.364C54.8309 185.364 54.8309 185.364 54.8309 185.443L58.6477 238.663C58.6477 238.742 58.6477 238.742 58.7264 238.742H174.076C174.155 238.742 174.155 238.663 174.155 238.663L169.715 197.055C169.715 196.977 169.794 196.977 169.873 196.977C171.814 199.706 174.155 202.12 176.569 204.692H176.647L184.045 197.285L207.254 147.423Z" fill="#7FBCD2"/>
<path opacity="0.2" d="M76.171 186.611L67.9931 202.902L58.8052 238.585C58.8052 238.664 58.8052 238.664 58.8773 238.664H84.2702C84.3489 238.664 84.3489 238.664 84.3489 238.585L81.9355 176.639C81.9355 176.56 81.8568 176.56 81.7781 176.639L76.171 186.611Z" fill="black"/>
<path d="M314.347 84.6178C314.347 76.3579 278.914 91.2442 276.422 92.3333C276.343 92.3333 276.265 92.3333 276.343 92.2545C276.652 91.0867 278.37 83.7584 275.563 83.063C272.448 82.2822 263.876 88.5149 252.275 103.244C241.29 117.113 216.37 154.745 215.045 156.851C215.045 156.923 214.966 156.923 214.888 156.851C214.501 156.379 212.632 154.043 209.825 150.461C209.044 149.523 208.27 148.513 207.411 147.424C207.411 147.345 207.333 147.424 207.254 147.424L176.726 204.613V204.692C179.684 207.73 183.658 211.161 188.485 214.277C196.505 219.414 206.946 223.784 219.642 223.784C254.302 223.784 274.317 147.345 274.861 145.318C274.861 145.318 274.861 145.239 274.94 145.239C280.081 144.458 283.82 140.253 284.206 139.866H284.285C287.636 140.719 291.217 140.489 294.332 139.085C302.353 135.654 300.72 130.28 300.562 129.736V129.657C307.107 122.329 299.939 117.185 299.087 116.562C299.008 116.562 299.008 116.49 299.087 116.411C299.71 115.939 303.448 112.822 301.343 107.134C299.861 103.086 292.62 99.8912 291.374 99.4254C291.296 99.4254 291.296 99.3467 291.374 99.2679C293.552 98.4085 314.347 89.7614 314.347 84.6178Z" fill="#E5A280"/>
<path opacity="0.2" d="M208.421 166.667L214.809 157.003V156.924C214.579 156.616 212.632 154.201 209.825 150.691C209.746 150.613 209.667 150.691 209.667 150.691L208.271 166.588C208.271 166.667 208.421 166.745 208.421 166.667Z" fill="#695043"/>
<path opacity="0.2" d="M166.751 166.824L169.794 196.662C171.814 199.549 174.234 202.121 176.726 204.692C176.726 204.692 182.956 211.082 188.484 214.278L166.83 166.745C166.83 166.745 166.751 166.745 166.751 166.824Z" fill="black"/>
<path d="M166.751 166.824L169.794 196.662" stroke="black" stroke-width="2" stroke-linecap="round" stroke-linejoin="round"/>
<path d="M170.568 228.534C170.961 225.339 148.841 217.624 128.59 213.031C108.03 208.275 70.4064 203.21 68.0717 202.901C67.993 202.901 67.993 202.823 67.993 202.823C68.4586 201.963 72.0459 195.344 76.0922 186.69V186.611L21.9618 160.513H21.8831C14.9512 172.67 6.46505 188.717 2.56955 202.901C-9.11695 246.458 21.9618 248.794 37.5373 249.574C53.0406 250.349 93.6941 247.311 94.3171 247.232C94.8614 247.39 128.59 257.362 138.637 257.362C147.903 257.362 148.061 253.393 147.982 252.77C147.982 252.691 147.982 252.691 148.061 252.691C149.071 252.77 158.731 253.078 158.108 246.53C158.108 246.458 158.108 246.458 158.186 246.458C159.196 246.301 171.119 244.116 164.338 238.664C160.678 235.705 142.532 228.613 139.181 227.209C139.102 227.209 139.102 227.051 139.181 227.051C148.061 227.99 169.794 234.688 170.568 228.534Z" fill="#E5A280"/>
<path d="M214.809 156.852L208.421 166.666" stroke="#B86E58" stroke-width="2" stroke-linecap="round" stroke-linejoin="round"/>
<path d="M113.867 52.9033L119.71 58.6702" stroke="#B86E58" stroke-width="2" stroke-linecap="round" stroke-linejoin="round"/>
<path d="M142.84 86.3301C135.987 84.3816 129.134 80.7207 129.134 80.7207" stroke="#B86E58" stroke-width="2" stroke-linecap="round" stroke-linejoin="round"/>
<path d="M150.474 66.1494C151.72 67.9405 153.747 69.1149 155.93 69.2658" stroke="#B86E58" stroke-width="2" stroke-linecap="round" stroke-linejoin="round"/>
<path d="M67.9929 202.901L83.024 205.001" stroke="#B86E58" stroke-width="2" stroke-linecap="round" stroke-linejoin="round"/>
<path d="M67.9929 202.901L81.9354 176.639" stroke="#B86E58" stroke-width="2" stroke-linecap="round" stroke-linejoin="round"/>
<path d="M158.186 246.458L127.809 233.212" stroke="#B86E58" stroke-width="2" stroke-linecap="round" stroke-linejoin="round"/>
<path d="M139.181 227.051L131.626 224.407" stroke="#B86E58" stroke-width="2" stroke-linecap="round" stroke-linejoin="round"/>
<path d="M276.265 92.4121L271.904 103.008C271.904 103.008 273.15 118.826 266.919 127.394" stroke="#B86E58" stroke-width="2" stroke-linecap="round" stroke-linejoin="round"/>
<path d="M299.087 116.562C290.515 122.02 282.574 121.397 280.934 119.678C278.599 117.343 279.38 111.891 287.171 108.774" stroke="#B86E58" stroke-width="2" stroke-linecap="round" stroke-linejoin="round"/>
<path d="M300.562 129.658C295.893 131.993 285.61 134.408 282.495 130.511C279.38 126.614 284.049 121.942 284.049 121.942" stroke="#B86E58" stroke-width="2" stroke-linecap="round" stroke-linejoin="round"/>
<path d="M284.206 139.787C281.636 137.839 279.38 135.031 281.328 132.459C281.636 131.993 282.029 131.606 282.495 131.291" stroke="#B86E58" stroke-width="2" stroke-linecap="round" stroke-linejoin="round"/>
<path d="M157.95 55.3184C158.422 56.4927 159.045 58.3626 158.731 59.3729C158.422 59.9962 157.878 60.5407 157.176 60.7769" stroke="#B86E58" stroke-width="2" stroke-linecap="round" stroke-linejoin="round"/>
<path d="M146.815 52.5167C148.1 52.5167 149.149 51.4735 149.149 50.181C149.149 48.882 148.1 47.8389 146.815 47.8389C145.523 47.8389 144.48 48.882 144.48 50.181C144.48 51.4735 145.523 52.5167 146.815 52.5167Z" fill="#17151C"/>
<path d="M163.564 51.3487C164.843 51.3487 165.899 50.3055 165.899 49.0065C165.899 47.7141 164.843 46.6709 163.564 46.6709C162.265 46.6709 161.223 47.7141 161.223 49.0065C161.223 50.3055 162.265 51.3487 163.564 51.3487Z" fill="#17151C"/>
<path opacity="0.2" d="M280.16 134.644C280.547 132.459 281.714 131.678 282.574 130.825C282.574 130.825 282.574 130.747 282.574 130.668C281.951 130.281 279.537 126.849 283.662 121.627C283.662 121.555 283.662 121.555 283.662 121.476C282.803 121.083 276.029 117.579 282.18 111.812V111.734C281.406 111.032 272.914 103.867 271.904 103.008C271.825 103.008 271.825 103.008 271.746 103.087C271.746 106.433 273.071 119.134 266.919 127.394V127.473C271.746 136.592 279.458 134.873 280.16 134.644C280.16 134.722 280.16 134.722 280.16 134.644Z" fill="#695043"/>
</svg>
