<svg width="164" height="172" viewBox="0 0 164 172" fill="none" xmlns="http://www.w3.org/2000/svg">
<g filter="url(#filter0_d_1399_5545)">
<circle cx="82" cy="86" r="78" fill="#7FBCD2"/>
</g>
<path d="M29 53.4574L29.1554 21.1831C29.1554 21.0565 30.0456 20.2085 30.1722 20.2085L73.0892 20.6325L71.7306 55.1691L39.363 105.394L29 53.4574Z" fill="#FFBA30"/>
<path d="M78.8096 0H38.985V5.93184L29.197 21.0567C29.1126 21.1832 29.197 21.352 29.3258 21.352L68.8529 22.0313L78.3434 6.73548H78.8096V0Z" fill="#FFBA30"/>
<path d="M29.0283 111V52.5342H68.8529V111H29.0283Z" fill="#EFE7D7"/>
<path d="M68.8535 111V52.5342H88.7647V111H68.8535Z" fill="#EFE7D7"/>
<path opacity="0.2" d="M29.368 21.3096L68.8529 22.0311C68.9373 22.0311 68.9795 22.1577 68.9373 22.1999L29.0283 53.9747L29.1549 21.4806C29.1549 21.394 29.2392 21.2675 29.368 21.3096Z" fill="#AB8585"/>
<path opacity="0.2" d="M35.1296 11.9478L38.7305 6.016C38.7727 5.97382 38.8148 5.93164 38.857 5.93164H78.4707C78.6394 5.93164 78.5551 6.05818 78.3863 6.10036L29.24 21.3096C29.1134 21.3518 28.9869 21.2252 29.0713 21.0987L35.1296 11.9478Z" fill="#AB8585"/>
<path d="M78.8102 5.93164L68.8535 22.0311V111H88.7647L88.8069 22.0311L78.8102 5.93164Z" fill="#F77F00"/>
<path d="M78.8109 5.93164H38.9863" stroke="#AB2020" stroke-width="2" stroke-linecap="round" stroke-linejoin="round"/>
<path d="M68.8533 22.0311L29.1553 21.1831" stroke="#AB2020" stroke-width="2" stroke-linecap="round" stroke-linejoin="round"/>
<path d="M122.58 18.126H112.452V74.09H122.58V18.126Z" fill="#F77F00"/>
<path d="M117.516 18.126H109.47V74.09H117.516V18.126Z" fill="#FFBA30"/>
<path d="M112.98 9H102.852V64.964H112.98V9Z" fill="#F77F00"/>
<path d="M107.916 9H99.8701V64.964H107.916V9Z" fill="#FFBA30"/>
<path d="M125.554 14.9038L113.068 69.4578L122.942 71.7158L135.428 17.1618L125.554 14.9038Z" fill="#F77F00"/>
<path d="M122.69 14.248L110.206 68.802L118.048 70.598L130.534 16.044L122.69 14.248Z" fill="#FFBA30"/>
<path d="M136.526 25.6338L124.04 80.1878L133.914 82.4458L146.398 27.8918L136.526 25.6338Z" fill="#F77F00"/>
<path d="M133.612 24.9741L121.126 79.5261L128.968 81.3221L141.454 26.7681L133.612 24.9741Z" fill="#FFBA30"/>
<path d="M99.8642 16.4678L89.8682 18.0978L98.8842 73.3298L108.88 71.6978L99.8642 16.4678Z" fill="#F77F00"/>
<path d="M94.8824 17.2759L86.9404 18.5719L95.9564 73.8039L103.898 72.5079L94.8824 17.2759Z" fill="#FFBA30"/>
<path d="M90.7538 26.1499L80.7578 27.7819L89.7738 83.0139L99.7698 81.3819L90.7538 26.1499Z" fill="#F77F00"/>
<path d="M85.7564 26.9678L77.8164 28.2638L86.8324 83.4938L94.7724 82.1978L85.7564 26.9678Z" fill="#FFBA30"/>
<path d="M120.73 30.4658H110.6V86.4298H120.73V30.4658Z" fill="#F77F00"/>
<path d="M115.666 30.4658H107.618V86.4298H115.666V30.4658Z" fill="#FFBA30"/>
<path d="M134.226 39.8481C134.226 39.8481 129.598 48.5881 112.246 48.5881C94.894 48.5881 90.266 39.8481 90.266 39.8481H76L83.712 109H140.78L148.492 39.8481H134.226Z" fill="#D62828"/>
<path d="M140.78 109L142.966 89.462C137.67 85.786 126.514 79.438 112.246 79.438C97.9783 79.438 86.9503 85.736 81.6543 89.438L83.7123 109H140.78Z" fill="white"/>
<path d="M112.246 75.5801C98.3644 75.5801 87.7484 85.4261 81.5264 89.4381L83.7124 109H140.78L143.446 85.1441C137.224 81.1341 126.128 75.5801 112.246 75.5801Z" fill="#EFE7D7"/>
<path d="M81.5262 89.462C86.8222 85.786 97.9782 79.438 112.246 79.438C126.514 79.438 137.67 85.76 142.966 89.462L143.916 80.902C137.078 76.764 125.948 71.75 112.246 71.75C98.5442 71.75 87.4142 76.79 80.5762 80.902L81.5262 89.462Z" fill="#AB2020"/>
<path opacity="0.2" d="M110.678 109H140.78L142.966 89.4622C138.312 86.2242 129.136 80.9542 117.336 79.7202L110.678 109Z" fill="#8E8E8E"/>
<path opacity="0.2" d="M119.032 72.1621L118.184 75.9161L117.336 79.6941C129.162 80.9281 138.312 86.1981 142.966 89.4381L143.454 85.1181L143.916 80.8761C138.236 77.4581 129.624 73.4481 119.032 72.1621Z" fill="black"/>
<path opacity="0.2" d="M148.492 39.8481H134.226C134.226 39.8481 131.988 44.0641 124.816 46.6341L119.032 72.1621C129.624 73.4481 138.236 77.4581 143.916 80.9021L148.492 39.8481Z" fill="black"/>
<path d="M96.2254 122.176H51.7747C43.6494 122.176 36.4997 116.847 34.1817 109.069C33.0744 105.345 35.1912 101.406 38.9155 100.299C39.5773 100.1 40.256 100 40.9346 100H107.066C110.955 100 114.116 103.16 114.116 107.05C114.116 107.729 114.016 108.407 113.818 109.069C111.5 116.847 104.336 122.176 96.2254 122.176Z" fill="#D62828"/>
<path d="M35.6048 105.975H112.395C117.144 105.975 121 109.83 121 114.579C121 119.33 117.144 123.186 112.395 123.186H35.6048C30.8559 123.186 27 119.33 27 114.579C27 109.83 30.8559 105.975 35.6048 105.975Z" fill="#FFBA30"/>
<path opacity="0.2" d="M112.395 118.916H35.6048C31.5834 118.916 28.2088 116.168 27.2651 112.445C27.0827 113.124 27 113.835 27 114.579C27 119.33 30.8559 123.186 35.6048 123.186H112.395C117.144 123.186 121 119.33 121 114.579C121 113.852 120.9 113.124 120.735 112.445C119.791 116.153 116.417 118.916 112.395 118.916Z" fill="#D9C7A2"/>
<path d="M96.2254 134.092H51.7747C43.6494 134.092 36.4997 128.762 34.1817 120.985C33.0744 117.26 35.1912 113.322 38.9155 112.214C39.5773 112.015 40.256 111.916 40.9346 111.916H107.066C110.955 111.916 114.116 115.076 114.116 118.966C114.116 119.644 114.016 120.323 113.818 120.985C111.5 128.762 104.336 134.092 96.2254 134.092Z" fill="#D62828"/>
<path opacity="0.2" d="M96.2249 128.217H51.7742C43.9948 128.217 37.1046 123.334 34.5064 116.085C33.8446 117.576 33.6848 119.296 34.1812 120.984C36.4992 128.762 43.6488 134.092 51.7742 134.092H96.2249C104.335 134.092 111.5 128.762 113.818 120.984C114.015 120.323 114.115 119.644 114.115 118.965C114.115 117.939 113.888 116.957 113.491 116.064C110.893 123.329 103.987 128.217 96.2249 128.217Z" fill="#761515"/>
<path opacity="0.2" d="M103.293 120.951C98.2788 120.951 95.846 117.211 93.8927 114.2C92.0221 111.336 90.8471 109.699 88.6457 109.699C86.4461 109.699 85.271 111.336 83.4004 114.2C81.4471 117.211 78.9975 120.951 74.0004 120.951C69.0034 120.951 66.5538 117.211 64.6004 114.2C62.7298 111.336 61.5548 109.699 59.3552 109.699C57.1538 109.699 55.9788 111.336 54.1082 114.2C52.1548 117.211 49.7052 120.951 44.7082 120.951C43.3339 120.951 42.2266 119.843 42.2266 118.469C42.2266 117.095 43.3339 115.988 44.7082 115.988C46.9096 115.988 48.0846 114.365 49.9552 111.485C51.9067 108.473 54.3563 104.734 59.3552 104.734C64.3523 104.734 66.8019 108.473 68.7552 111.485C70.624 114.365 71.782 115.988 74.0004 115.988C76.2188 115.988 77.3769 114.365 79.2457 111.485C81.199 108.473 83.6486 104.734 88.6457 104.734C93.6446 104.734 96.0942 108.473 98.0457 111.485C99.9163 114.365 101.074 115.988 103.293 115.988C104.667 115.988 105.774 117.095 105.774 118.469C105.774 119.843 104.667 120.951 103.293 120.951Z" fill="black"/>
<path d="M62.4779 131.663C62.9366 131.456 63.0795 130.781 62.7975 130.157C62.5173 129.533 61.9176 129.193 61.4589 129.399C61.0002 129.604 60.8573 130.281 61.1374 130.903C61.4194 131.529 62.021 131.87 62.4779 131.663Z" fill="#0E0707"/>
<path d="M51.9858 129.025C52.5555 128.642 52.7886 127.993 52.5066 127.576C52.2265 127.16 51.5365 127.132 50.9687 127.518C50.401 127.901 50.1679 128.55 50.4499 128.965C50.73 129.383 51.4199 129.411 51.9858 129.025Z" fill="#0E0707"/>
<path d="M70.3397 126.063C70.3641 125.377 69.9768 124.807 69.4749 124.788C68.9729 124.769 68.5461 125.309 68.5198 125.995C68.4935 126.679 68.8789 127.251 69.3827 127.27C69.8847 127.287 70.3133 126.747 70.3397 126.063Z" fill="#0E0707"/>
<path d="M92.1207 123.695C92.6058 123.212 92.7092 122.53 92.3538 122.174C92.0004 121.819 91.318 121.924 90.8329 122.409C90.3479 122.892 90.2445 123.575 90.5998 123.93C90.9532 124.286 91.6357 124.18 92.1207 123.695Z" fill="#0E0707"/>
<path d="M81.0985 131.36C81.1248 130.676 80.7394 130.104 80.2375 130.087C79.7336 130.067 79.305 130.608 79.2806 131.291C79.2542 131.977 79.6415 132.548 80.1435 132.567C80.6454 132.586 81.0741 132.045 81.0985 131.36Z" fill="#0E0707"/>
<path d="M82.5799 128.781C82.8299 128.347 82.5536 127.715 81.9595 127.373C81.3654 127.031 80.6811 127.104 80.4311 127.54C80.1792 127.974 80.4555 128.608 81.0496 128.95C81.6437 129.292 82.328 129.217 82.5799 128.781Z" fill="#0E0707"/>
<path d="M94.9864 131.176C95.4658 131.029 95.6933 130.377 95.4921 129.721C95.291 129.065 94.7382 128.655 94.2588 128.803C93.7757 128.95 93.5501 129.6 93.7512 130.255C93.9524 130.911 94.5051 131.323 94.9864 131.176Z" fill="#0E0707"/>
<path d="M65.2841 125.06C65.9346 124.848 66.335 124.286 66.1771 123.808C66.0192 123.331 65.3649 123.118 64.7145 123.333C64.0621 123.547 63.6617 124.107 63.8196 124.586C63.9775 125.062 64.6336 125.276 65.2841 125.06Z" fill="#0E0707"/>
<path d="M103.293 118.866C98.2788 118.866 95.846 115.126 93.8927 112.115C92.0221 109.251 90.8471 107.612 88.6457 107.612C86.4461 107.612 85.271 109.251 83.4004 112.115C81.4471 115.126 78.9975 118.866 74.0004 118.866C69.0034 118.866 66.5538 115.126 64.6004 112.115C62.7298 109.251 61.5548 107.612 59.3552 107.612C57.1538 107.612 55.9788 109.251 54.1082 112.115C52.1548 115.126 49.7052 118.866 44.7082 118.866C43.3339 118.866 42.2266 117.758 42.2266 116.384C42.2266 115.01 43.3339 113.901 44.7082 113.901C46.9096 113.901 48.0846 112.28 49.9552 109.4C51.9067 106.388 54.3563 102.649 59.3552 102.649C64.3523 102.649 66.8019 106.388 68.7552 109.4C70.624 112.28 71.782 113.901 74.0004 113.901C76.2188 113.901 77.3769 112.28 79.2457 109.4C81.199 106.388 83.6486 102.649 88.6457 102.649C93.6446 102.649 96.0942 106.388 98.0457 109.4C99.9163 112.28 101.074 113.901 103.293 113.901C104.667 113.901 105.774 115.01 105.774 116.384C105.774 117.758 104.667 118.866 103.293 118.866Z" fill="#EFE7D7"/>
<defs>
<filter id="filter0_d_1399_5545" x="0" y="8" width="164" height="164" filterUnits="userSpaceOnUse" color-interpolation-filters="sRGB">
<feFlood flood-opacity="0" result="BackgroundImageFix"/>
<feColorMatrix in="SourceAlpha" type="matrix" values="0 0 0 0 0 0 0 0 0 0 0 0 0 0 0 0 0 0 127 0" result="hardAlpha"/>
<feOffset dy="4"/>
<feGaussianBlur stdDeviation="2"/>
<feComposite in2="hardAlpha" operator="out"/>
<feColorMatrix type="matrix" values="0 0 0 0 0 0 0 0 0 0 0 0 0 0 0 0 0 0 0.25 0"/>
<feBlend mode="normal" in2="BackgroundImageFix" result="effect1_dropShadow_1399_5545"/>
<feBlend mode="normal" in="SourceGraphic" in2="effect1_dropShadow_1399_5545" result="shape"/>
</filter>
</defs>
</svg>
